<!-- Generated by IcoMoon.io -->
<svg version="1.1" xmlns="http://www.w3.org/2000/svg" width="416" height="512" viewBox="0 0 416 512">
<title></title>
<g id="icomoon-ignore">
</g>
<path fill="#000" d="M347.438 272.010c-0.646-64.697 52.762-95.726 55.149-97.267-30.010-43.912-76.755-49.928-93.414-50.624-39.783-4.028-77.625 23.422-97.816 23.422-20.139 0-51.295-22.826-84.289-22.227-43.361 0.644-83.344 25.214-105.671 64.048-45.052 78.176-11.537 193.99 32.373 257.392 21.456 31.033 47.042 65.891 80.634 64.647 32.349-1.291 44.582-20.933 83.692-20.933s50.103 20.933 84.338 20.29c34.81-0.647 56.865-31.628 78.173-62.759 24.64-36.004 34.786-70.862 35.384-72.652-0.772-0.352-67.88-26.060-68.552-103.338zM283.113 82.147c17.829-21.631 29.863-51.642 26.581-81.58-25.682 1.046-56.813 17.107-75.238 38.69-16.535 19.145-31.005 49.703-27.126 79.043 28.669 2.237 57.936-14.57 75.784-36.152z"></path>
</svg>
