<?xml version="1.0" encoding="utf-8"?>
<!-- Generator: Adobe Illustrator 25.0.1, SVG Export Plug-In . SVG Version: 6.00 Build 0)  -->
<svg version="1.1" id="Isolation_Mode" xmlns="http://www.w3.org/2000/svg" xmlns:xlink="http://www.w3.org/1999/xlink" x="0px"
	 y="0px" viewBox="0 0 858.04 156.34" style="enable-background:new 0 0 858.04 156.34;" xml:space="preserve">
<g>
	<path d="M257.83,99.71l7.15,5.94c1.96,1.63,2.07,4.62,0.2,6.34c-7.05,6.49-15.74,10.7-28.9,10.7c-22.64,0-43.32-17.11-43.32-42.43
		c0-25.85,20.32-41.36,43.32-41.36c11.59,0,21.1,4.05,28.29,10.46c1.93,1.72,1.88,4.75-0.1,6.41l-6.85,5.75
		c-1.59,1.33-3.93,1.35-5.48-0.03c-4.33-3.86-9.79-6.2-15.87-6.2c-12.83,0-24.07,9.45-24.07,24.96c0,14.97,11.59,26.03,24.07,26.03
		c6.63,0,11.8-2.56,16.02-6.47C253.83,98.39,256.21,98.37,257.83,99.71z"/>
	<path d="M338.58,99.71l7.15,5.94c1.96,1.63,2.07,4.62,0.2,6.34c-7.05,6.49-15.74,10.7-28.9,10.7c-22.64,0-43.32-17.11-43.32-42.43
		c0-25.85,20.32-41.36,43.32-41.36c11.59,0,21.1,4.05,28.29,10.46c1.93,1.72,1.88,4.75-0.1,6.41l-6.85,5.75
		c-1.59,1.33-3.93,1.35-5.48-0.03c-4.33-3.86-9.79-6.2-15.87-6.2c-12.83,0-24.06,9.45-24.06,24.96c0,14.97,11.59,26.03,24.06,26.03
		c6.63,0,11.81-2.56,16.02-6.47C334.58,98.39,336.96,98.37,338.58,99.71z"/>
	<path d="M472.29,73.5v43.72c0,2.34-1.9,4.24-4.24,4.24h-10.07c-2.34,0-4.24-1.9-4.24-4.24V74.03c0-11.05-5.88-18.72-14.8-18.72
		c-9.27,0-14.62,7.66-14.62,18.72v43.18c0,2.34-1.9,4.24-4.24,4.24h-10.07c-2.34,0-4.24-1.9-4.24-4.24V74.03
		c0-11.05-4.63-18.72-13.73-18.72c-9.09,0-15.69,7.66-15.69,18.72v43.18c0,2.34-1.9,4.24-4.24,4.24h-10.07
		c-2.34,0-4.24-1.9-4.24-4.24V69.95c0-15.25,16.58-31.04,35.12-31.04c9.8,0,17.83,5.35,22.46,11.76
		c4.63-6.42,13.01-11.76,24.6-11.76C458.74,38.91,472.29,52.28,472.29,73.5z"/>
	<path d="M556.25,75.59V99.6c0,14.03-18.54,23.1-36.54,23.1c-18.18,0-35.47-8.91-35.47-26.38c0-14.26,11.41-24.24,32.8-24.24h19.25
		c0.79,0,1.43-0.64,1.43-1.43l0,0c0-10.52-7.66-15.69-18.54-15.69c-7.4,0-14.43,2.21-20.48,5.1c-2.04,0.98-4.48,0.2-5.56-1.79
		l-3.79-6.98c-1.16-2.14-0.28-4.81,1.92-5.86c8.71-4.15,18.3-6.7,29.05-6.5C540.27,39.28,556.25,55.62,556.25,75.59z M537.71,91.64
		c0-2.34-1.9-4.24-4.24-4.24h-16.44c-9.8,0-13.73,2.85-13.73,8.73c0,7.31,7.31,10.52,16.58,10.52c8.91,0,17.83-2.85,17.83-13.19
		V91.64z"/>
	<path d="M612.04,56.55c-1.28,1.74-3.66,2.23-5.53,1.16c-2.08-1.19-4.24-1.68-7.13-1.68c-6.95,0-10.7,3.03-10.7,11.76v49.42
		c0,2.34-1.9,4.24-4.24,4.24h-10.07c-2.34,0-4.24-1.9-4.24-4.24V61.48c0-11.76,13.55-22.56,29.23-22.56
		c7.54,0,12.82,2.26,16.57,4.88c1.97,1.37,2.45,4.07,1.03,6.01L612.04,56.55z"/>
	<path d="M660.21,86.07l-13.31,15.84c-0.64,0.76-0.99,1.73-0.99,2.72v12.58c0,2.34-1.9,4.24-4.24,4.24h-10.07
		c-2.34,0-4.24-1.9-4.24-4.24V26.1c0-2.34,1.9-4.24,4.24-4.24h10.07c2.34,0,4.24,1.9,4.24,4.24v40.8c0,4.03,5.09,5.78,7.57,2.61
		l21.64-27.71c0.8-1.03,2.03-1.63,3.34-1.63h11.36c3.56,0,5.53,4.12,3.3,6.89l-13.68,16.95c-0.99,1.23-1.22,2.91-0.58,4.36
		l20.62,47.15c1.22,2.8-0.83,5.93-3.88,5.93h-10.7c-1.69,0-3.22-1.01-3.89-2.56l-13.65-31.77C666.1,84.22,662.24,83.65,660.21,86.07
		z"/>
	<path d="M782.37,87.4h-53.81c-3.15,0-5.23,3.34-3.79,6.14c4.43,8.64,13.23,13.11,22.04,13.11c7.16,0,12.48-2.07,17.07-4.83
		c1.89-1.13,4.33-0.59,5.6,1.21l4.65,6.58c1.39,1.96,0.88,4.71-1.15,6c-7.47,4.73-16.23,7.09-26.17,7.09
		c-24.07,0-43.85-17.11-43.85-42.43c0-25.85,19.61-41.36,42.25-41.36c26.56,0,41.54,18.72,41.54,40.82c0,1.26-0.05,2.56-0.16,3.87
		C786.39,85.77,784.54,87.4,782.37,87.4z M761.57,72.07c3.22,0,5.31-3.48,3.71-6.28c-4.03-7.05-11.02-10.83-19.89-10.83
		c-9.41,0-16.6,3.98-20.45,10.9c-1.55,2.79,0.56,6.21,3.75,6.21H761.57z"/>
	<path d="M853.81,87.4c2.34,0,4.24,1.9,4.24,4.24v1.29c0,19.25-11.23,29.77-29.59,29.77c-18.54,0-29.59-10.52-29.59-29.77
		l-0.22-67.95c-0.01-1.85,1.19-3.49,2.96-4.05l10.29-3.25c2.73-0.86,5.51,1.18,5.51,4.04v21.88c0,2.34,1.9,4.24,4.24,4.24h25.93
		c2.34,0,4.24,1.9,4.24,4.24v7.57c0,2.34-1.9,4.24-4.24,4.24h-25.93c-2.34,0-4.24,1.9-4.24,4.24v24.82
		c0,9.09,2.67,13.37,11.05,13.37c8.2,0,11.05-4.28,11.05-13.37v-1.29c0-2.34,1.9-4.24,4.24-4.24H853.81z"/>
</g>
<g>
	<path d="M90.56,80.57c0,25.14-20.68,41.89-44.57,41.89c-10.87,0-20.68-2.67-28.52-7.66C8.2,108.74,0,95.36,0,84.35V4.24
		C0,1.9,1.9,0,4.24,0H14.3c2.34,0,4.24,1.9,4.24,4.24v36.67c0,3.29,3.59,5.34,6.4,3.64c5.82-3.53,13.48-5.86,21.05-5.86
		C69.88,38.68,90.56,55.62,90.56,80.57z M71.3,80.57c0-14.8-11.59-25.49-26.38-25.49s-26.38,10.7-26.38,25.49
		c0,14.8,11.59,25.49,26.38,25.49S71.3,95.37,71.3,80.57z"/>
	<path d="M121.43,156.34h-11.03c-3.06,0-5.11-3.14-3.88-5.94l16.65-37.92L92.76,45.93c-1.28-2.8,0.77-6,3.85-6h11.15
		c1.67,0,3.19,0.99,3.87,2.52l17.28,38.94c1.52,3.42,6.41,3.34,7.8-0.14l15.52-38.66c0.64-1.61,2.2-2.66,3.93-2.66h10.72
		c3.03,0,5.08,3.09,3.9,5.88l-45.45,107.93C124.68,155.31,123.14,156.34,121.43,156.34z"/>
</g>
</svg>
