<?xml version="1.0" encoding="utf-8"?>
<!-- Generator: Adobe Illustrator 23.0.0, SVG Export Plug-In . SVG Version: 6.00 Build 0)  -->
<svg version="1.1" id="Camada_1" xmlns="http://www.w3.org/2000/svg" xmlns:xlink="http://www.w3.org/1999/xlink" x="0px" y="0px"
	 viewBox="0 0 120 103" style="enable-background:new 0 0 120 103;" xml:space="preserve">
<g>
	<path d="M110,13H79.9L74.7,2.9c0,0-1-2.9-4.9-2.9c-2.7,0-6.8,0-9,0c0,0-0.6,0-1.7,0c-2.3,0-6.3,0-9,0c-3.9,0-4.9,2.9-4.9,2.9
		L40.1,13H10C4.5,13,0,17.5,0,23v70c0,5.5,4.5,10,10,10h100c5.5,0,10-4.5,10-10V23C120,17.5,115.5,13,110,13z M60,88
		c-16.6,0-30-13.4-30-30s13.4-30,30-30s30,13.4,30,30S76.6,88,60,88z"/>
	<circle cx="60" cy="58" r="20"/>
</g>
</svg>
