<?xml version="1.0" encoding="utf-8"?>
<!-- Generator: Adobe Illustrator 23.0.0, SVG Export Plug-In . SVG Version: 6.00 Build 0)  -->
<svg version="1.1" id="Camada_1" xmlns="http://www.w3.org/2000/svg" xmlns:xlink="http://www.w3.org/1999/xlink" x="0px" y="0px"
	 viewBox="0 0 86 69" style="enable-background:new 0 0 86 69;" xml:space="preserve">
<g>
	<path d="M43,57.5c-9.9,0-18-8.1-18-18s8.1-18,18-18s18,8.1,18,18S52.9,57.5,43,57.5z M43,27.5c-6.6,0-12,5.4-12,12s5.4,12,12,12
		s12-5.4,12-12S49.6,27.5,43,27.5z"/>
</g>
<g>
	<path d="M76.3,69H9.7C4.3,69,0,64.7,0,59.3V19.7C0,14.3,4.3,10,9.7,10h14.9l0.5-2.6c0,0,0-0.1,0-0.1C26.1,3.1,29.8,0,34,0h18
		c4.2,0,7.9,3,8.9,7.3c0,0,0,0.1,0,0.1l0.5,2.6h14.9c5.3,0,9.7,4.3,9.7,9.7v39.7C86,64.7,81.7,69,76.3,69z M9.7,16
		c-2,0-3.7,1.6-3.7,3.7v39.7c0,2,1.6,3.7,3.7,3.7h66.7c2,0,3.7-1.6,3.7-3.7V19.7c0-2-1.6-3.7-3.7-3.7H59c-1.4,0-2.7-1-2.9-2.4
		l-1-4.9C54.7,7.1,53.4,6,52,6H34c-1.3,0-2.7,1.2-3.1,2.6l-1,4.9C29.7,15,28.4,16,27,16H9.7z"/>
</g>
</svg>
