<?xml version="1.0" encoding="utf-8"?>
<!-- Generator: Adobe Illustrator 23.0.0, SVG Export Plug-In . SVG Version: 6.00 Build 0)  -->
<svg version="1.1" id="Camada_1" xmlns="http://www.w3.org/2000/svg" xmlns:xlink="http://www.w3.org/1999/xlink" x="0px" y="0px"
	 viewBox="0 0 51.5 48.9" style="enable-background:new 0 0 51.5 48.9;" xml:space="preserve">
<g>
	<path d="M50.9,6.1C50.3,5.4,49.4,5,48.5,5h-35L12,1.8C11.5,0.7,10.4,0,9.3,0H3C1.3,0,0,1.3,0,3s1.3,3,3,3h4.3l8.5,18.7l-2.4,5
		c-0.5,0.9-0.4,2,0.1,2.9c0.5,0.9,1.5,1.4,2.5,1.4H43c1.7,0,3-1.3,3-3s-1.3-3-3-3H20.9l0.5-1l23.7-1.2c1.3-0.1,2.5-1,2.8-2.3
		l3.5-14.8C51.7,7.8,51.4,6.9,50.9,6.1z M42.6,19.9L20.8,21l-4.6-10h28.5L42.6,19.9z"/>
	<circle cx="18" cy="43.9" r="5"/>
	<circle cx="40.4" cy="43.9" r="5"/>
</g>
</svg>
