<?xml version="1.0" encoding="utf-8"?>
<!-- Generator: Adobe Illustrator 23.0.0, SVG Export Plug-In . SVG Version: 6.00 Build 0)  -->
<svg version="1.1" id="Layer_1" xmlns="http://www.w3.org/2000/svg" xmlns:xlink="http://www.w3.org/1999/xlink" x="0px" y="0px"
	 viewBox="0 0 36 36" style="enable-background:new 0 0 36 36;" xml:space="preserve">
<g>
	<path d="M27,1c4.4,0,8,3.6,8,8v18c0,4.4-3.6,8-8,8H9c-4.4,0-8-3.6-8-8V9c0-4.4,3.6-8,8-8H27 M27,0H9C4,0,0,4,0,9v18c0,5,4,9,9,9h18
		c5,0,9-4,9-9V9C36,4,32,0,27,0L27,0z"/>
</g>
</svg>
