<?xml version="1.0" encoding="utf-8"?>
<!-- Generator: Adobe Illustrator 23.0.0, SVG Export Plug-In . SVG Version: 6.00 Build 0)  -->
<svg version="1.1" id="Camada_1" xmlns="http://www.w3.org/2000/svg" xmlns:xlink="http://www.w3.org/1999/xlink" x="0px" y="0px"
	 viewBox="0 0 117.2 121.4" style="enable-background:new 0 0 117.2 121.4;" xml:space="preserve">
<path d="M116.3,56.5L60.7,0.9c-1.2-1.2-3.1-1.2-4.2,0L0.9,56.5c-1.2,1.2-1.2,3.1,0,4.2c1.2,1.2,3.1,1.2,4.2,0l11.5-11.5v59.2
	c0,1.7,1.3,3,3,3h23.3l19.4,9.7c0.4,0.2,0.9,0.3,1.3,0.3c0.5,0,1.1-0.2,1.6-0.4c0.9-0.5,1.4-1.5,1.4-2.6v-40c0-1.1-0.6-2.2-1.7-2.7
	l-8.6-4.3h14.3v37c0,1.7,1.3,3,3,3h24c1.7,0,3-1.3,3-3V49.2l11.5,11.5c0.6,0.6,1.4,0.9,2.1,0.9s1.5-0.3,2.1-0.9
	C117.5,59.6,117.5,57.7,116.3,56.5z M60.6,113.6l-14-7V73.3l14,7V113.6z M94.6,44.4v61h-18v-37c0-1.7-1.3-3-3-3h-30c0,0-0.1,0-0.1,0
	c-0.1,0-0.1,0-0.2,0c-0.2,0-0.3,0-0.5,0.1c-0.1,0-0.1,0-0.2,0.1c-0.2,0.1-0.3,0.1-0.5,0.2c0,0-0.1,0-0.1,0c0,0,0,0,0,0
	c-0.2,0.1-0.4,0.3-0.5,0.4c0,0-0.1,0.1-0.1,0.1c-0.1,0.1-0.2,0.3-0.3,0.4c0,0.1-0.1,0.1-0.1,0.2c-0.1,0.1-0.1,0.3-0.2,0.5
	c0,0.1,0,0.1-0.1,0.2c-0.1,0.2-0.1,0.5-0.1,0.7v37h-18v-61c0-0.4-0.1-0.7-0.2-1L58.6,7.2l36.2,36.2C94.7,43.7,94.6,44.1,94.6,44.4z"
	/>
</svg>
