<?xml version="1.0" encoding="utf-8"?>
<!-- Generator: Adobe Illustrator 23.0.0, SVG Export Plug-In . SVG Version: 6.00 Build 0)  -->
<svg version="1.1" id="Camada_1" xmlns="http://www.w3.org/2000/svg" xmlns:xlink="http://www.w3.org/1999/xlink" x="0px" y="0px"
	 viewBox="0 0 56 43" style="enable-background:new 0 0 56 43;" xml:space="preserve">
<g>
	<path d="M25.6,32.9c0.6,0.6,1.3,0.9,2.1,0.9s1.6-0.3,2.1-0.9l8.3-8.3c1.2-1.2,1.2-3.1,0-4.2c-1.2-1.2-3.1-1.2-4.2,0L31,23.2V3
		c0-1.7-1.3-3-3-3s-3,1.3-3,3v20.8l-3.5-3.5c-1.2-1.2-3.1-1.2-4.2,0c-1.2,1.2-1.2,3.1,0,4.2L25.6,32.9z"/>
	<path d="M53,27c-1.7,0-3,1.3-3,3v5.4c0,0.9-0.6,1.6-0.9,1.6H7.4C6.9,37,6,36.1,6,35.4V30c0-1.7-1.3-3-3-3s-3,1.3-3,3v5.4
		c0,4,3.5,7.6,7.4,7.6h41.7c3.8,0,6.9-3.4,6.9-7.6V30C56,28.3,54.7,27,53,27z"/>
</g>
</svg>
