<?xml version="1.0" encoding="utf-8"?>
<!-- Generator: Adobe Illustrator 23.0.0, SVG Export Plug-In . SVG Version: 6.00 Build 0)  -->
<svg version="1.1" id="Camada_1" xmlns="http://www.w3.org/2000/svg" xmlns:xlink="http://www.w3.org/1999/xlink" x="0px" y="0px"
	 viewBox="0 0 66 96" style="enable-background:new 0 0 66 96;" xml:space="preserve">
<g>
	<path d="M43,18H23c-1.7,0-3-1.3-3-3s1.3-3,3-3h20c1.7,0,3,1.3,3,3S44.7,18,43,18z"/>
</g>
<g>
	<path d="M53,96H13C5.8,96,0,90.2,0,83V13C0,5.8,5.8,0,13,0h40c7.2,0,13,5.8,13,13v70C66,90.2,60.2,96,53,96z M13,6
		c-3.9,0-7,3.1-7,7v70c0,3.9,3.1,7,7,7h40c3.9,0,7-3.1,7-7V13c0-3.9-3.1-7-7-7H13z"/>
</g>
</svg>
