<?xml version="1.0" encoding="utf-8"?>
<!-- Generator: Adobe Illustrator 23.0.0, SVG Export Plug-In . SVG Version: 6.00 Build 0)  -->
<svg version="1.1" id="Camada_1" xmlns="http://www.w3.org/2000/svg" xmlns:xlink="http://www.w3.org/1999/xlink" x="0px" y="0px"
	 viewBox="0 0 43.6 37.9" style="enable-background:new 0 0 43.6 37.9;" xml:space="preserve">
<g>
	<path d="M1.8,2.5l8.4,8.4C6.2,12.8,2.7,15.6,0,19c5,6.5,12.9,10.7,21.8,10.7c2.2,0,4.4-0.3,6.4-0.8l9,9l2.5-2.5L4.3,0L1.8,2.5z
		 M21.8,25.7c-3.7,0-6.7-3-6.7-6.7c0-0.9,0.2-1.8,0.6-2.7l8.8,8.8C23.6,25.5,22.7,25.7,21.8,25.7z"/>
	<path d="M21.8,8.3c-1.3,0-2.6,0.1-3.9,0.3l3.7,3.7h0.1c3.7,0,6.7,3,6.7,6.7v0.1l7,7c3.2-1.8,5.9-4.2,8.2-7.1
		C38.6,12.5,30.7,8.3,21.8,8.3z"/>
</g>
</svg>
