<?xml version="1.0" encoding="utf-8"?>
<!-- Generator: Adobe Illustrator 23.0.0, SVG Export Plug-In . SVG Version: 6.00 Build 0)  -->
<svg version="1.1" id="Camada_1" xmlns="http://www.w3.org/2000/svg" xmlns:xlink="http://www.w3.org/1999/xlink" x="0px" y="0px"
	 viewBox="0 0 50 50" style="enable-background:new 0 0 50 50;" xml:space="preserve">
<path d="M23,50c-0.6,0-1.1,0-1.7,0c-1.5-0.9-2-2.2-1.9-3.9c0.1-5.7,0.1-11.3,0-17c0-1-0.4-2.2-1.1-3c-5.6-7-11.4-13.9-17.1-20.9
	c-0.9-1.1-1.6-2.1-1-3.6C1,0.2,2.3,0,3.7,0c14.2,0,28.4,0,42.6,0C48,0,49.2,0.5,50,2c0,0.6,0,1.1,0,1.7c-0.4,0.6-0.9,1.1-1.3,1.7
	C43,12.3,37.3,19.2,31.7,26.2c-0.6,0.8-1.1,2-1.1,3c-0.1,4.4,0,8.8-0.1,13.2c0,1-0.5,2.4-1.3,3C27.3,47,25.1,48.5,23,50z"/>
</svg>
