<!-- Generated by IcoMoon.io -->
<svg version="1.1" xmlns="http://www.w3.org/2000/svg" width="1610" height="512" viewBox="0 0 1610 512">
<title></title>
<g id="icomoon-ignore">
</g>
<path d="M1222.343 212.275c1.054 12.481 1.009 24.464 0.879 36.412h85.389q-0.017-17.923-0.040-35.851l-86.225-0.561zM1223.19 272.058q42.63 0.034 85.262 0.079l-0.714 36.050-86.021-0.36c1.086-8.681 1.766-19.961 1.472-35.77zM1216.029 331.178h89.972c-12.351 63.416-58.967 99.727-124.701 98.587q-65.29 0.017-130.568 0.039 0.025-49.263 0.040-98.519l84.768 0.017q0 11.478-0.005 22.962l42.863 0.034c15.039-0.612 28.127-6.768 37.632-23.12zM1050.658 272.024q42.435 0.085 84.87 0.164 0.034 17.846 0.080 35.693-42.418-0.034-84.837-0.062-0.060-17.895-0.113-35.795zM1050.704 212.837q42.376 0.025 84.768 0.045 0.025 17.863 0.056 35.733-42.384 0.008-84.78 0.023-0.025-17.906-0.045-35.8zM1273.839 83.718q-0.017 3.579-0.028 7.171c28.381 22.662 40.415 45.499 48.554 68.371q51.533 0.034 103.071 0.062-9.642 15.049-19.289 30.099 48.022-0.025 96.031-0.056 12.71-19.614 25.428-39.225 0-33.21 0.005-66.421zM1390.628 212.695l96.309 0.119-23.485 35.93q-47.919-0.077-95.833-0.159 11.505-17.94 23.008-35.891zM1352.429 271.996q47.851 0.017 95.714 0.039-11.604 17.889-23.211 35.772-47.775 0.043-95.55 0.079 11.521-17.94 23.047-35.892zM1326.99 331.337h82.791q-7.78 11.649-15.554 23.291 66.676 0.068 133.34 0.142 0.017 37.538 0.028 75.076-126.898-0.009-253.79-0.022 0.025-3.553 0.056-7.113c27.588-22.871 48.525-50.844 53.129-91.372zM1570.248 40.856h-562.031v430.010h562.035zM968.083 0h641.996v512h-641.995zM1050.772 83.709q-0.017 52.859-0.040 105.722 42.393-0.017 84.78-0.040 0-15.066-0.005-30.14 20.057 0.017 40.109 0.040c19.929 0.992 35.58 9.166 43.589 30.149q43.677-0.017 87.34-0.040c-7.402-58.388-47.018-104.052-119.935-105.701q-67.923 0.004-135.837 0.010z"></path>
<path d="M138.667 342.832q-19.198 8.435-43.096 8.428-22.276 0-39.864-7.51c-11.755-4.994-21.755-11.986-30.026-20.644l-0.032-0.034c-8.151-8.604-14.633-18.884-18.866-30.257l-0.202-0.618c-4.17-11.033-6.583-23.788-6.583-37.106 0-0.258 0.001-0.517 0.003-0.775v0.040c-0.001-0.096-0.001-0.21-0.001-0.325 0-13.209 2.514-25.83 7.088-37.412l-0.24 0.69c4.652-12.041 11.153-22.38 19.263-31.219l-0.065 0.071c8.202-8.855 18.057-16.046 29.092-21.107l0.57-0.234q17.337-7.916 38.527-7.918c0.276-0.002 0.602-0.003 0.928-0.003 7.303 0 14.469 0.587 21.454 1.715l-0.766-0.102c6.896 1.118 13.033 2.8 18.887 5.053l-0.642-0.217c6.083 2.322 11.303 4.986 16.187 8.125l-0.344-0.207c5.425 3.484 10.109 6.976 14.54 10.757l-0.182-0.151-13.683 16.109c-3.368-3.052-7.048-5.923-10.931-8.513l-0.344-0.216c-3.656-2.436-7.85-4.685-12.257-6.527l-0.496-0.184c-4.267-1.788-9.304-3.321-14.522-4.349l-0.51-0.084c-5.217-1.023-11.216-1.607-17.351-1.607-0.272 0-0.544 0.001-0.816 0.004l0.041-0q-15.576 0-28.715 6.184c-8.846 4.161-16.343 9.773-22.51 16.608l-0.055 0.062c-6.181 6.949-11.18 15.115-14.576 24.070l-0.178 0.536c-3.399 8.74-5.37 18.857-5.37 29.434 0 0.196 0 0.392 0.002 0.588v-0.030q0 16.937 5.226 31.321c3.466 9.632 8.531 17.909 14.946 24.933l-0.051-0.057c6.419 6.906 14.198 12.452 22.921 16.228l0.442 0.17q13.68 5.926 30.875 5.923c0.155 0.001 0.338 0.002 0.522 0.002 10.719 0 20.965-2.029 30.373-5.724l-0.564 0.195q14.223-5.535 23.897-13.343v-46.909h-57.185v-18.792h77.592v74.704q-13.17 11.801-32.354 20.224z"></path>
<path d="M334.771 348.046l-54.494-73.019h-53.69v73.019h-21.21v-187.927h80.806q15.577 0 28.058 4.036 12.473 4.030 21.336 11.41c5.749 4.773 10.374 10.688 13.563 17.416l0.132 0.308q4.846 10.347 4.836 22.974 0 11.81-3.764 21.080c-2.544 6.275-6.13 11.634-10.596 16.117l0.002-0.001c-4.617 4.567-9.984 8.388-15.897 11.26l-0.354 0.155c-5.906 2.916-12.76 5.16-19.961 6.382l-0.445 0.063 57.72 76.727zM320.244 189.552q-12.643-9.828-35.529-9.828h-58.128v76.517h57.861c0.182 0.002 0.397 0.003 0.611 0.003 6.688 0 13.145-0.989 19.233-2.829l-0.47 0.122c5.87-1.724 10.982-4.352 15.464-7.766l-0.115 0.084c4.215-3.255 7.618-7.349 9.998-12.048l0.092-0.201q3.639-7.269 3.634-16.438 0.002-17.779-12.649-27.615z"></path>
<path d="M539.616 267.779q0 20.669-5.64 36.231-5.648 15.577-15.979 26.039c-6.772 6.838-15.022 12.199-24.233 15.565l-0.459 0.147q-14.368 5.221-32.087 5.226-17.457 0-31.805-5.226c-9.656-3.497-17.906-8.807-24.704-15.574l0.002 0.002q-10.339-10.339-15.979-25.632-5.628-15.304-5.64-35.177v-109.262h21.211v107.925q0 30.608 15.174 46.981 15.159 16.358 42.279 16.375 26.043 0 41.344-15.577t15.304-46.445v-109.26h21.21z"></path>
<path d="M711.142 246.834c-3.949 7.716-9.328 14.169-15.841 19.233l-0.128 0.096c-6.666 5.126-14.5 9.133-22.999 11.563l-0.49 0.12c-8.354 2.469-17.952 3.89-27.882 3.89-0.202 0-0.403-0-0.604-0.002h-45.61v66.313h-21.211v-187.927h70.332q15.84 0 28.862 4.159t22.284 11.813c6.056 5.020 10.881 11.306 14.103 18.47l0.13 0.322q4.966 11.155 4.96 25.105-0.001 15.305-5.908 26.846zM681.982 190.061q-13.867-10.339-36.753-10.339h-47.641v82.682h46.571c0.247 0.003 0.54 0.005 0.833 0.005 7.235 0 14.218-1.079 20.798-3.084l-0.505 0.132c6.295-1.887 11.765-4.781 16.525-8.536l-0.104 0.079c4.41-3.507 7.957-7.904 10.401-12.935l0.097-0.221c2.297-4.839 3.637-10.516 3.637-16.505 0-0.192-0.001-0.383-0.004-0.575l0 0.029q0.001-20.398-13.854-30.733z"></path>
<path d="M918.662 291c-4.778 12.003-11.407 22.293-19.647 31.051l0.047-0.050c-8.404 8.875-18.479 16.070-29.734 21.099l-0.591 0.236q-17.718 7.933-39.207 7.924-21.477 0-39.048-7.783c-11.792-5.2-21.827-12.31-30.178-21.045l-0.034-0.035c-8.202-8.637-14.797-18.894-19.245-30.228l-0.22-0.636c-4.335-10.875-6.848-23.478-6.848-36.668 0-0.179 0-0.358 0.001-0.537v0.028c-0.001-0.155-0.001-0.339-0.001-0.522 0-13.2 2.567-25.8 7.23-37.329l-0.239 0.668c4.78-12.005 11.405-22.298 19.638-31.065l-0.048 0.052c8.413-8.872 18.492-16.069 29.749-21.104l0.593-0.237q17.711-7.916 39.19-7.918t39.060 7.782c11.785 5.203 21.816 12.312 30.165 21.042l0.033 0.035c8.202 8.643 14.8 18.902 19.255 30.238l0.221 0.637c4.327 10.882 6.837 23.492 6.837 36.687 0 0.174-0 0.349-0.001 0.523v-0.026c0.001 0.151 0.001 0.329 0.001 0.508 0 13.204-2.563 25.808-7.216 37.345l0.239-0.671zM898.131 224.014c-3.692-9.575-8.928-17.782-15.481-24.734l0.034 0.037c-6.541-6.864-14.335-12.465-23.024-16.451l-0.466-0.191q-13.556-6.173-29.668-6.173-16.103 0-29.662 6.037c-9.095 4.044-16.817 9.618-23.183 16.468l-0.040 0.043c-6.346 6.916-11.478 15.067-14.982 24.035l-0.181 0.525c-3.481 8.779-5.5 18.951-5.5 29.594 0 0.215 0.001 0.43 0.003 0.645v-0.033c-0.001 0.165-0.002 0.359-0.002 0.554 0 10.708 2.019 20.944 5.695 30.35l-0.196-0.567c3.673 9.574 8.905 17.78 15.462 24.721l-0.034-0.036c6.539 6.873 14.332 12.48 23.024 16.468l0.465 0.191q13.57 6.173 29.668 6.173t29.678-6.048c9.091-4.043 16.808-9.615 23.168-16.467l0.040-0.045c6.354-6.916 11.491-15.070 14.997-24.041l0.181-0.524c3.479-8.776 5.496-18.942 5.496-29.581 0-0.215-0.001-0.429-0.003-0.644v0.033c0.001-0.161 0.001-0.351 0.001-0.541 0-10.713-2.016-20.956-5.691-30.368l0.196 0.569z"></path>
<path d="M0.001 82.767h925.638v27.649h-925.638v-27.649z"></path>
<path d="M0.001 401.582h925.638v27.649h-925.638v-27.649z"></path>
</svg>
