<?xml version="1.0" encoding="utf-8"?>
<!-- Generator: Adobe Illustrator 23.0.0, SVG Export Plug-In . SVG Version: 6.00 Build 0)  -->
<svg version="1.1" id="Camada_1" xmlns="http://www.w3.org/2000/svg" xmlns:xlink="http://www.w3.org/1999/xlink" x="0px" y="0px"
	 viewBox="0 0 18.8 29.8" style="enable-background:new 0 0 18.8 29.8;" xml:space="preserve">
<g>
	<path d="M6.3,20.3c0-1.9,0.2-3.5,0.7-4.6c0.4-1.1,1.2-2.1,2.1-2.9c1-0.8,1.7-1.6,2.3-2.3s0.8-1.4,0.8-2.3c0-2-0.9-3-2.6-3
		C8.7,5.2,8,5.5,7.5,6.1C7,6.7,6.8,7.5,6.8,8.5H0c0-2.7,0.9-4.7,2.5-6.2c1.7-1.5,4-2.2,7-2.2c3,0,5.3,0.7,6.9,2.1
		c1.6,1.4,2.4,3.3,2.4,5.9c0,1.1-0.2,2.1-0.7,3c-0.4,0.9-1.1,1.8-2.1,2.8l-2.3,2.1c-0.7,0.6-1.1,1.3-1.4,1.9
		c-0.3,0.7-0.4,1.5-0.4,2.5H6.3z M5.4,26.4c0-1,0.4-1.8,1.1-2.4c0.7-0.6,1.6-1,2.7-1c1.1,0,2,0.3,2.7,1c0.7,0.6,1.1,1.4,1.1,2.4
		c0,1-0.4,1.8-1.1,2.4c-0.7,0.6-1.6,0.9-2.7,0.9c-1.1,0-2-0.3-2.7-0.9C5.8,28.2,5.4,27.4,5.4,26.4z"/>
</g>
</svg>
