<?xml version="1.0" encoding="utf-8"?>
<!-- Generator: Adobe Illustrator 23.0.0, SVG Export Plug-In . SVG Version: 6.00 Build 0)  -->
<svg version="1.1" id="Camada_1" xmlns="http://www.w3.org/2000/svg" xmlns:xlink="http://www.w3.org/1999/xlink" x="0px" y="0px"
	 viewBox="0 0 25.8 25.8" style="enable-background:new 0 0 25.8 25.8;" xml:space="preserve">
<path d="M17.1,12.9l7.8-7.8c1.2-1.2,1.2-3.1,0-4.2c-1.2-1.2-3.1-1.2-4.2,0l-7.8,7.8L5.1,0.9C4-0.3,2-0.3,0.9,0.9
	c-1.2,1.2-1.2,3.1,0,4.2l7.8,7.8l-7.8,7.8c-1.2,1.2-1.2,3.1,0,4.2c0.6,0.6,1.4,0.9,2.1,0.9s1.5-0.3,2.1-0.9l7.8-7.8l7.8,7.8
	c0.6,0.6,1.4,0.9,2.1,0.9s1.5-0.3,2.1-0.9c1.2-1.2,1.2-3.1,0-4.2L17.1,12.9z"/>
</svg>
