<?xml version="1.0" encoding="utf-8"?>
<!-- Generator: Adobe Illustrator 23.0.0, SVG Export Plug-In . SVG Version: 6.00 Build 0)  -->
<svg version="1.1" id="Camada_1" xmlns="http://www.w3.org/2000/svg" xmlns:xlink="http://www.w3.org/1999/xlink" x="0px" y="0px"
	 viewBox="0 0 36 40" style="enable-background:new 0 0 36 40;" xml:space="preserve">
<g>
	<path d="M33,14h-2v-1c0-7.2-5.8-13-13-13S5,5.8,5,13v1H3c-1.7,0-3,1.3-3,3v20c0,1.7,1.3,3,3,3h30c1.7,0,3-1.3,3-3V17
		C36,15.3,34.7,14,33,14z M11,13c0-3.9,3.1-7,7-7s7,3.1,7,7v1H11V13z M30,34H6V20h24V34z"/>
	<path d="M18,22c-1.7,0-3,1.3-3,3v4c0,1.7,1.3,3,3,3s3-1.3,3-3v-4C21,23.3,19.7,22,18,22z"/>
</g>
</svg>
