<!-- Generated by IcoMoon.io -->
<svg version="1.1" xmlns="http://www.w3.org/2000/svg" width="1775" height="512" viewBox="0 0 1775 512">
<title></title>
<g id="icomoon-ignore">
</g>
<path fill="#000" d="M254.262 212.278c1.050 12.48 1.004 24.465 0.879 36.41h85.384q-0.016-17.926-0.036-35.852l-86.226-0.557zM255.106 272.057q42.63 0.043 85.266 0.082-0.358 18.021-0.718 36.053-43.010-0.183-86.023-0.361c1.089-8.68 1.771-19.966 1.475-35.774zM247.947 331.182h89.97c-12.347 63.414-58.968 99.724-124.704 98.585l-130.565 0.043q0.022-49.262 0.043-98.524 42.383 0.010 84.764 0.017 0 11.481-0.007 22.962 21.43 0.022 42.863 0.036c15.038-0.616 28.129-6.769 37.636-23.12zM82.576 272.028l84.866 0.161q0.043 17.846 0.082 35.692l-84.838-0.057q-0.053-17.899-0.111-35.796zM82.616 212.839l84.77 0.043q0.032 17.867 0.060 35.734l-84.784 0.022q-0.020-17.899-0.044-35.799zM305.755 83.719q-0.010 3.584-0.025 7.168c28.38 22.662 40.413 45.5 48.553 68.376q51.534 0.027 103.075 0.058-9.649 15.049-19.291 30.102l96.031-0.057q12.713-19.613 25.427-39.224 0.005-33.206 0.004-66.422zM422.545 212.696l96.313 0.118q-11.743 17.969-23.487 35.934l-95.831-0.161q11.502-17.946 23.005-35.892zM384.346 271.999q47.858 0.016 95.713 0.039-11.604 17.884-23.209 35.77-47.773 0.043-95.553 0.082 11.524-17.947 23.048-35.892zM358.909 331.338h82.791q-7.779 11.647-15.551 23.291l133.341 0.139q0.010 37.54 0.025 75.077-126.897-0.011-253.791-0.018 0.027-3.558 0.058-7.118c27.587-22.869 48.526-50.842 53.128-91.37zM602.166 40.859h-562.038v430.010h562.038zM669.967 4.915h-0.003c-7.924 0.033-14.337 6.467-14.337 14.399 0 0.020 0 0.041 0 0.059v0c0 0 0 0 0 0 0 7.985 6.473 14.458 14.458 14.458s14.458-6.474 14.458-14.459c0-7.986-6.473-14.459-14.458-14.459-0.042 0-0.083 0-0.119 0zM669.967 1.028c10.043 0 18.183 8.211 18.183 18.344s-8.14 18.344-18.183 18.344-18.187-8.211-18.187-18.344 8.144-18.343 18.188-18.343zM0.001 0h641.997v512h-641.997zM665.606 18.044h2.922c1.893 0 3.068-0.078 3.543-0.235 0.457-0.148 0.836-0.43 1.1-0.801l0.005-0.006c0.252-0.38 0.402-0.846 0.402-1.347 0-0.033-0-0.065-0.002-0.097v0.005c0.001-0.031 0.003-0.069 0.003-0.106 0-0.554-0.201-1.063-0.534-1.454l0.003 0.003c-0.379-0.405-0.894-0.679-1.471-0.749l-0.011-0.001q-0.482-0.064-2.879-0.064h-3.079zM661.649 29.063v-19.101h8.311c2.086 0 3.607 0.171 4.551 0.514 0.959 0.349 1.743 0.989 2.264 1.81l0.011 0.018c0.538 0.828 0.858 1.841 0.858 2.928 0 0.029 0 0.058-0 0.086v-0.005c0.002 0.055 0.004 0.118 0.004 0.182 0 1.299-0.49 2.482-1.297 3.376l0.004-0.005q-1.291 1.398-3.849 1.764c0.805 0.448 1.496 0.979 2.098 1.598l0.002 0.002c0.796 0.916 1.534 1.93 2.181 3.006l0.054 0.098 2.387 3.726h-4.719l-2.829-4.172c-0.69-1.058-1.376-1.971-2.116-2.837l0.031 0.037c-0.322-0.346-0.72-0.617-1.168-0.786l-0.021-0.007c-0.514-0.137-1.105-0.216-1.713-0.216-0.1 0-0.198 0.002-0.297 0.006l0.014-0h-0.8v7.976zM731.163 81.579h31.116l34.488 57.272 34.487-57.273h31.116v135.438h-28.491v-88.419l-36.925 57.85h-0.75l-36.553-57.272v87.841h-28.491zM938.269 80.608h26.712l56.432 136.288h-30.284l-12.040-30.349h-55.682l-12.040 30.349h-29.534zM968.743 160.257l-17.494-43.885-17.494 43.885zM1055.238 108.854h-39.742v-27.434h108.216v27.434h-39.742v107.803h-28.734zM1145.901 81.38h98.756v26.405h-70.274v27.37h61.84v26.405h-61.84v28.334h71.208v26.401h-99.692zM1271.141 80.933h59.835q24.87 0 38.146 13.708 11.218 11.582 11.218 30.895v0.386q0 16.416-7.762 26.744t-20.287 15.157l31.976 48.273h-33.659l-28.048-43.252h-22.627v43.252h-28.794zM1329.105 146.58q10.661 0 16.361-5.211 5.706-5.213 5.704-13.903v-0.386q0-9.654-5.983-14.48t-16.644-4.829h-28.61v38.81zM1407.918 80.908h28.766v134.809h-28.766zM1514.31 79.715h26.559l56.111 135.952h-30.113l-11.969-30.276h-55.364l-11.972 30.277h-29.362zM1544.608 159.162l-17.395-43.774-17.395 43.774zM1618.48 80.511h29.013v135.034h-29.013zM1726.841 217.178c-10.598-0.010-20.738-1.95-30.095-5.488l0.587 0.195q-14.47-5.293-26.309-16.269l17.101-20.987q9.022 7.512 18.512 11.94t20.766 4.425q9.022 0 14.001-3.368t4.983-9.337v-0.386c0.002-0.069 0.002-0.149 0.002-0.23 0-1.765-0.381-3.441-1.065-4.95l0.031 0.076q-1.034-2.213-3.95-4.136c-1.972-1.286-4.665-2.568-8.111-3.849s-7.957-2.632-13.468-4.047c-7.3-1.797-13.34-3.71-19.216-5.956l1.111 0.373c-5.386-2.054-9.99-4.589-13.751-7.604-3.719-2.994-6.69-6.763-8.689-11.075l-0.079-0.19q-3.103-6.734-3.103-16.748v-0.386q0-9.242 3.354-16.654c2.308-5.035 5.488-9.296 9.387-12.766l0.039-0.034c4.043-3.597 8.897-6.355 14.505-8.279s11.807-2.889 18.572-2.889q14.476 0 26.594 4.429c8.541 3.168 15.918 7.466 22.4 12.809l-0.131-0.105-15.034 22.334q-8.834-6.156-17.291-9.722-8.459-3.558-16.916-3.561t-12.687 3.368q-4.227 3.37-4.229 8.376v0.386c-0.003 0.092-0.004 0.2-0.004 0.308 0 1.954 0.454 3.801 1.261 5.444l-0.033-0.073q1.216 2.406 4.416 4.332c2.16 1.286 5.072 2.504 8.768 3.657q5.593 1.736 14.033 4.043c7.024 1.851 12.956 3.923 18.676 6.391l-0.85-0.327c5.197 2.246 9.615 4.944 13.183 8.085 3.441 2.995 6.19 6.691 8.037 10.875l0.078 0.197q2.726 6.355 2.725 15.208v0.386q0 10.013-3.54 17.809c-2.365 5.197-5.714 9.571-9.841 13.048l-0.055 0.046c-4.228 3.529-9.304 6.226-15.161 8.085s-12.376 2.788-19.515 2.788zM731.574 288.668h96.070v25.745h-68.361v26.683h60.158v25.745h-60.158v27.627h69.272v25.745h-96.981zM853.225 288.589h28.044v105.278h63.562v26.087h-91.606zM965.932 288.257h96.043v25.68h-68.34v26.62h60.136v25.68h-60.137v27.555h69.25v25.683h-96.952zM1019.328 244.768l23.873 10.683-23.327 22.496h-21.136zM1117.599 314.868h-38.841v-26.652h105.764v26.652h-38.841v104.725h-28.081zM1205.501 288.11h58.153q24.172 0 37.073 13.307 10.902 11.245 10.904 29.988v0.378q0 15.928-7.543 25.957t-19.719 14.712l31.077 46.86h-32.713l-27.258-41.985h-21.986v41.985h-27.986zM1261.836 351.84q10.356 0 15.901-5.061t5.543-13.498v-0.375q0-9.37-5.815-14.055t-16.176-4.69h-27.8v37.678zM1338.084 287.871h28.252v131.048h-28.252zM1457.841 421.072q-14.085 0-26.156-5.233c-8.129-3.519-15.056-8.346-20.841-14.29l-0.014-0.014q-8.781-9.065-13.718-21.405t-4.943-26.359v-0.375q0-14.021 4.943-26.266c3.36-8.327 7.996-15.462 13.747-21.532l-0.029 0.031q8.775-9.252 21.037-14.583 12.252-5.325 27.073-5.329c0.199-0.002 0.435-0.002 0.67-0.002 5.554 0 10.981 0.546 16.229 1.587l-0.527-0.087c5.105 1.007 9.607 2.429 13.878 4.282l-0.434-0.168c4.264 1.856 7.932 3.983 11.321 6.469l-0.162-0.113c3.522 2.584 6.628 5.283 9.498 8.216l0.013 0.014-17.926 21.124q-7.501-6.916-15.273-10.844-7.774-3.921-17.473-3.925c-0.092-0.001-0.201-0.002-0.311-0.002-10.504 0-19.929 4.615-26.361 11.926l-0.034 0.039c-3.225 3.673-5.829 7.986-7.59 12.709l-0.093 0.284c-1.741 4.605-2.748 9.928-2.748 15.487 0 0.109 0.001 0.218 0.001 0.327v-0.017 0.375c-0.001 0.080-0.001 0.174-0.001 0.269 0 5.605 1.007 10.975 2.851 15.938l-0.103-0.317c1.832 5.036 4.406 9.38 7.637 13.142l-0.047-0.056c3.202 3.687 7.097 6.678 11.495 8.791l0.213 0.092q6.862 3.268 15.091 3.268 10.977 0 18.569-4.111t15.091-11.219l17.93 18.509c-3.168 3.488-6.515 6.668-10.082 9.591l-0.166 0.132c-3.379 2.752-7.19 5.212-11.261 7.228l-0.354 0.159c-3.973 1.969-8.59 3.582-13.426 4.603l-0.387 0.068q-7.5 1.589-16.83 1.588zM1590.572 420.911q-14.733 0-27.101-5.35t-21.37-14.454c-5.882-5.965-10.62-13.076-13.848-20.966l-0.157-0.433q-5.004-12.296-5.004-26.377v-0.375q0-14.079 5.092-26.375c3.476-8.37 8.236-15.533 14.116-21.606l-0.018 0.019q9.001-9.29 21.462-14.644 12.457-5.347 27.188-5.35t27.101 5.35q12.365 5.352 21.37 14.454c5.881 5.967 10.62 13.079 13.848 20.969l0.157 0.433q5.004 12.295 5.004 26.375v0.375q0 14.079-5.097 26.373c-3.474 8.372-8.233 15.536-14.111 21.609l0.018-0.019c-5.962 6.115-13.091 11.060-21.033 14.478l-0.426 0.163q-12.463 5.352-27.191 5.35zM1590.931 394.256c0.11 0.001 0.239 0.002 0.369 0.002 5.464 0 10.652-1.175 15.328-3.286l-0.235 0.095c4.761-2.142 8.789-5.123 12.063-8.791l0.031-0.034c3.268-3.689 5.917-8.017 7.726-12.76l0.096-0.286c1.785-4.617 2.819-9.959 2.819-15.544 0-0.112-0.001-0.224-0.001-0.335v0.017-0.375c0.001-0.082 0.001-0.178 0.001-0.274 0-5.632-1.034-11.024-2.922-15.994l0.103 0.31c-1.903-5.084-4.619-9.452-8.031-13.169l0.026 0.029c-3.399-3.684-7.476-6.685-12.040-8.815l-0.236-0.099c-4.434-2.076-9.628-3.288-15.104-3.288-0.124 0-0.248 0-0.372 0.002h0.019q-8.551 0-15.551 3.19c-4.723 2.159-8.718 5.137-11.973 8.79l-0.031 0.036c-3.267 3.688-5.916 8.015-7.726 12.757l-0.096 0.287c-1.785 4.619-2.819 9.964-2.819 15.55 0 0.111 0.001 0.221 0.001 0.332v-0.017 0.375c-0.001 0.081-0.001 0.178-0.001 0.274 0 5.632 1.034 11.024 2.922 15.995l-0.103-0.31c1.902 5.084 4.619 9.452 8.031 13.169l-0.026-0.029c3.38 3.67 7.425 6.668 11.951 8.815l0.235 0.101q7.003 3.284 15.548 3.286zM1727.761 420.197c-10.267-0.009-20.092-1.891-29.155-5.325l0.567 0.188q-14.021-5.132-25.495-15.779l16.572-20.351q8.738 7.28 17.937 11.579 9.194 4.291 20.119 4.293 8.742 0 13.565-3.269 4.827-3.268 4.825-9.058v-0.372c0.002-0.070 0.003-0.154 0.003-0.238 0-1.705-0.369-3.325-1.032-4.781l0.030 0.072q-1.002-2.148-3.825-4.018c-1.909-1.243-4.522-2.489-7.858-3.733s-7.707-2.553-13.051-3.921c-7.073-1.743-12.926-3.599-18.62-5.776l1.076 0.361c-5.218-1.993-9.679-4.45-13.322-7.375-3.604-2.905-6.482-6.561-8.42-10.741l-0.076-0.185q-3.001-6.531-3.004-16.243v-0.372q0-8.963 3.246-16.151c2.238-4.885 5.321-9.017 9.1-12.387l0.036-0.032c3.915-3.486 8.619-6.161 14.051-8.029s11.444-2.8 17.997-2.8q14.020 0 25.765 4.293c8.276 3.074 15.423 7.243 21.703 12.426l-0.126-0.101-14.565 21.659q-8.562-5.974-16.755-9.428t-16.387-3.454q-8.197 0-12.293 3.268t-4.098 8.122v0.372c-0.003 0.087-0.004 0.191-0.004 0.295 0 1.896 0.439 3.689 1.221 5.284l-0.032-0.071q1.184 2.336 4.279 4.204c2.093 1.243 4.915 2.425 8.497 3.546 3.61 1.122 8.133 2.428 13.598 3.921 6.803 1.796 12.548 3.805 18.088 6.199l-0.822-0.317c5.040 2.178 9.319 4.793 12.78 7.844 3.335 2.901 5.997 6.485 7.783 10.541l0.075 0.192q2.641 6.166 2.643 14.75v0.375q0 9.713-3.429 17.272c-2.291 5.041-5.537 9.281-9.54 12.654l-0.053 0.044c-4.093 3.425-9.011 6.039-14.687 7.844s-11.986 2.707-18.908 2.707zM82.691 83.709q-0.022 52.863-0.040 105.725 42.388-0.022 84.776-0.040 0-15.071-0.007-30.137 20.059 0.022 40.113 0.039c19.93 0.989 35.573 9.165 43.589 30.152l87.341-0.042c-7.404-58.389-47.022-104.049-119.94-105.703q-67.916 0.005-135.833 0.007z"></path>
</svg>
