<!-- Generated by IcoMoon.io -->
<svg version="1.1" xmlns="http://www.w3.org/2000/svg" width="467" height="512" viewBox="0 0 467 512">
<title></title>
<g id="icomoon-ignore">
</g>
<path d="M173.13 143.909l58.395 0.374v24.316h-57.893c0.094-8.105 0.117-16.222-0.595-24.69zM173.702 184.435l57.799 0.059q-0.222 12.204-0.479 24.433l-58.314-0.233c0.637-5.524 1-11.927 1-18.413 0-2.055-0.036-4.101-0.108-6.138l0.008 0.295zM168.762 224.494c-6.423 11.107-15.323 15.288-25.553 15.615h-29.058v-15.569h-57.461v66.793h88.516c44.567 0.771 76.171-23.849 84.544-66.839h-60.988zM56.644 184.388l57.543 0.117v24.199h-57.508q0.011-12.146-0.035-24.292zM56.644 144.271h57.461v24.222h-57.484q0.070-12.065 0.059-24.199zM379.966 56.76v44.953l-17.238 26.593h-65.099l13.069-20.404h-69.875c-5.512-15.51-13.676-30.996-32.911-46.354v-4.87zM271.49 168.458l64.971 0.105 15.918-24.363-65.286-0.082zM245.564 208.634l64.783-0.059 15.731-24.245h-64.889zM243.987 224.623c-3.13 27.481-17.32 46.447-36.1 61.887v4.824h172.008v-50.897l-90.395-0.094 10.511-15.79h-56.060zM408.894 27.703h-381.028v291.52h381.028zM454.863 3.329c-5.382 0.019-9.73 4.394-9.717 9.775v-0.004c0 0.022 0 0.044 0 0.066 0 5.367 4.351 9.717 9.717 9.717s9.717-4.351 9.717-9.717c0-0.022 0-0.044 0-0.063 0.007-5.378-4.339-9.749-9.717-9.775zM454.863 0.701c6.817 0.038 12.317 5.586 12.298 12.403 0.033 6.837-5.484 12.406-12.321 12.438-6.83-0.045-12.336-5.608-12.31-12.438-0.013-6.828 5.505-12.377 12.333-12.403zM0.665 0h435.231v347.124h-435.231zM451.908 12.228h1.974c0.163 0.009 0.353 0.015 0.543 0.015 0.659 0 1.303-0.065 1.925-0.189l-0.063 0.011c0.31-0.095 0.567-0.284 0.745-0.533l0.003-0.005c0.17-0.257 0.27-0.572 0.27-0.911 0-0.024-0-0.050-0.002-0.074v0.004c0.001-0.021 0.002-0.046 0.002-0.070 0-0.373-0.133-0.716-0.354-0.983l0.002 0.002c-0.257-0.274-0.606-0.461-0.996-0.513l-0.009-0.001h-4.041zM449.222 19.703v-12.952h5.629c0.136-0.006 0.295-0.011 0.455-0.011 0.94 0 1.849 0.132 2.709 0.378l-0.070-0.017c0.649 0.237 1.18 0.67 1.534 1.225l0.007 0.012c0.36 0.557 0.573 1.238 0.573 1.969 0 0.027-0 0.053-0.001 0.079v-0.004c0.002 0.041 0.003 0.089 0.003 0.139 0 0.873-0.329 1.669-0.87 2.271l0.003-0.003c-0.686 0.658-1.594 1.088-2.601 1.167l-0.015 0.001c0.543 0.313 1.010 0.673 1.425 1.086v0c0.537 0.624 1.038 1.314 1.48 2.046l0.038 0.069 1.612 2.523h-3.2l-1.916-2.826c-0.471-0.721-0.935-1.341-1.436-1.931l0.022 0.027c-0.219-0.233-0.488-0.416-0.791-0.533l-0.014-0.005c-0.346-0.092-0.743-0.145-1.153-0.145-0.071 0-0.142 0.002-0.212 0.005l0.010-0.001h-0.537v5.408zM0 376.041h12.998l14.4 22.938 14.412-22.938h12.987v54.238h-11.889v-35.411l-15.428 23.171h-0.316l-15.264-22.938v35.178h-11.901zM86.495 375.656h11.165l23.569 54.576h-12.614l-5.034-12.158h-23.253l-5.034 12.158h-12.344zM99.225 407.551l-7.311-17.577-7.299 17.577zM135.348 386.961h-16.573v-10.99h45.198v10.99h-16.596v43.212h-12.006zM173.212 375.959h41.238v10.582h-29.338v10.955h25.822v10.57h-25.822v11.352h29.781v10.628h-41.636zM225.51 375.784h24.993q10.382 0 15.93 5.489 4.671 4.671 4.671 12.368v0.199c0.011 0.226 0.017 0.491 0.017 0.758 0 3.747-1.22 7.209-3.285 10.010l0.033-0.046c-2.171 2.738-5.045 4.832-8.349 6.021l-0.13 0.041 13.361 19.341h-14.015l-11.679-17.332h-9.448v17.332h-12.030zM249.721 402.074c0.198 0.014 0.429 0.022 0.662 0.022 2.335 0 4.484-0.795 6.193-2.129l-0.022 0.017c1.441-1.289 2.344-3.154 2.344-5.231 0-0.12-0.003-0.238-0.009-0.357l0 0.017v-0.152c0.014-0.16 0.021-0.346 0.021-0.534 0-2.135-0.977-4.041-2.508-5.296l-0.012-0.010c-1.755-1.226-3.932-1.959-6.281-1.959-0.235 0-0.469 0.007-0.7 0.022l0.031-0.002h-11.947v15.545zM282.632 375.772h12.017v53.992h-12.017zM327.071 375.293h11.095l23.428 54.447h-12.579l-4.998-12.123h-23.113l-4.998 12.123h-12.252zM339.719 407.108l-7.264-17.519-7.264 17.519zM370.575 375.574h12.123v54.12h-12.123zM415.832 430.313c-4.418-0.004-8.654-0.783-12.579-2.207l0.257 0.082c-4.25-1.522-7.906-3.738-11.019-6.543l0.029 0.026 7.136-8.397c2.24 1.822 4.782 3.417 7.509 4.683l0.224 0.093c2.49 1.123 5.397 1.776 8.457 1.776 0.077 0 0.154-0 0.231-0.001h-0.012c0.176 0.010 0.383 0.017 0.591 0.017 1.928 0 3.738-0.509 5.302-1.399l-0.053 0.028c1.253-0.752 2.080-2.103 2.080-3.648 0-0.031-0-0.063-0.001-0.094v0.005-0.152c0-0.019 0-0.043 0-0.065 0-0.717-0.159-1.398-0.445-2.007l0.012 0.029c-0.395-0.697-0.954-1.259-1.625-1.647l-0.021-0.011c-0.967-0.578-2.086-1.099-3.259-1.503l-0.128-0.038q-2.173-0.771-5.63-1.623c-3.065-0.721-5.594-1.488-8.058-2.387l0.49 0.156c-2.191-0.772-4.089-1.804-5.788-3.087l0.053 0.038c-1.55-1.185-2.791-2.695-3.635-4.435l-0.032-0.073c-0.824-1.829-1.304-3.965-1.304-6.213 0-0.173 0.003-0.344 0.009-0.515l-0 0.025v-0.163c-0.002-0.101-0.004-0.219-0.004-0.339 0-4.589 2.066-8.695 5.319-11.438l0.022-0.019c1.71-1.434 3.728-2.567 5.935-3.281l0.127-0.036c2.243-0.741 4.824-1.169 7.505-1.169 0.087 0 0.175 0 0.262 0.002h-0.014c0.103-0.001 0.226-0.002 0.348-0.002 3.851 0 7.55 0.651 10.994 1.848l-0.235-0.071c3.577 1.26 6.673 2.986 9.412 5.144l-0.069-0.053-6.272 8.946c-2.077-1.43-4.45-2.736-6.951-3.8l-0.267-0.101c-2.087-0.885-4.513-1.406-7.058-1.425h-0.007c-0.185-0.014-0.399-0.022-0.616-0.022-1.741 0-3.362 0.514-4.72 1.397l0.034-0.021c-1.071 0.743-1.764 1.966-1.764 3.351 0 0 0 0.001 0 0.002v0 0.152c-0.002 0.043-0.002 0.092-0.002 0.143 0 0.779 0.191 1.514 0.529 2.161l-0.012-0.026c0.442 0.738 1.065 1.327 1.808 1.716l0.025 0.012c1.046 0.57 2.263 1.070 3.536 1.439l0.131 0.033c1.553 0.455 3.503 1.005 5.839 1.623 2.935 0.736 5.414 1.563 7.81 2.553l-0.37-0.135c2.111 0.851 3.932 1.944 5.548 3.276l-0.036-0.029c1.426 1.191 2.572 2.669 3.354 4.349l0.032 0.077c0.74 1.707 1.171 3.695 1.171 5.784 0 0.11-0.001 0.219-0.003 0.329l0-0.017v0.152c0.001 0.070 0.002 0.151 0.002 0.233 0 2.503-0.556 4.877-1.551 7.005l0.043-0.101c-0.998 2.091-2.396 3.842-4.106 5.221l-0.029 0.022c-1.795 1.41-3.904 2.517-6.197 3.201l-0.134 0.034c-2.392 0.741-5.141 1.168-7.99 1.168-0.053 0-0.106 0-0.159-0h0.008zM0.175 458.939h40.129v10.313h-28.555v10.687h25.121v10.313h-25.122v11.060h28.929v10.313h-40.503zM50.979 458.939h11.679v42.161h26.546v10.511h-38.261zM98.057 458.81h40.105v10.289h-28.543v10.651h25.121v10.289h-25.121v11.036h28.917v10.289h-40.433zM120.353 441.397l9.974 4.274-9.752 9.016h-8.818zM161.393 469.426h-16.222v-10.675h44.17v10.675h-16.222v41.94h-11.679zM198.1 458.705h24.292q10.091 0 15.475 5.325 4.555 4.508 4.555 12.017v0.152c0.010 0.213 0.016 0.462 0.016 0.714 0 3.64-1.185 7.003-3.189 9.726l0.032-0.046c-2.103 2.628-4.869 4.642-8.048 5.799l-0.127 0.041 12.987 18.861h-13.665l-11.387-16.818h-9.179v16.818h-11.679zM221.633 484.224c0.194 0.014 0.419 0.022 0.647 0.022 2.264 0 4.35-0.769 6.009-2.058l-0.022 0.017c1.438-1.255 2.341-3.091 2.341-5.138 0-0.094-0.002-0.189-0.006-0.283l0 0.014v-0.152c0.010-0.137 0.016-0.296 0.016-0.457 0-2.078-0.947-3.935-2.434-5.163l-0.012-0.009c-1.715-1.188-3.84-1.899-6.131-1.899-0.222 0-0.442 0.007-0.661 0.020l0.030-0.002h-11.609v15.089zM253.47 458.612h11.807v52.474h-11.808zM303.491 511.95c-0.085 0.001-0.185 0.002-0.286 0.002-3.839 0-7.498-0.769-10.832-2.161l0.186 0.069c-3.381-1.401-6.271-3.339-8.704-5.738l0.003 0.003c-2.406-2.382-4.346-5.232-5.671-8.402l-0.063-0.171c-1.308-3.063-2.067-6.628-2.067-10.37 0-0.050 0-0.099 0-0.149v0.007-0.105c-0-0.048-0-0.106-0-0.163 0-7.394 2.98-14.091 7.804-18.957l-0.002 0.002c2.443-2.45 5.363-4.425 8.607-5.775l0.175-0.065c3.237-1.353 6.998-2.139 10.943-2.139 0.127 0 0.255 0.001 0.382 0.002h-0.019c0.087-0.001 0.19-0.001 0.293-0.001 2.312 0 4.572 0.217 6.764 0.632l-0.225-0.036c2.137 0.406 4.019 0.976 5.813 1.719l-0.195-0.072c1.788 0.747 3.325 1.599 4.752 2.599l-0.080-0.053c1.476 1.043 2.773 2.124 3.977 3.3l-0.007-0.006-7.486 8.467c-1.844-1.675-3.942-3.123-6.216-4.271l-0.161-0.074c-2.059-0.997-4.478-1.579-7.034-1.579-0.094 0-0.187 0.001-0.28 0.002h0.014c-0.032 0-0.070-0-0.108-0-2.212 0-4.315 0.469-6.216 1.312l0.098-0.038c-1.931 0.856-3.57 2.039-4.92 3.495l-0.009 0.010c-1.339 1.464-2.423 3.189-3.162 5.086l-0.038 0.111c-0.74 1.851-1.168 3.995-1.168 6.24 0 0.031 0 0.063 0 0.095v-0.005 0.163c0 0.022 0 0.049 0 0.075 0 2.262 0.428 4.424 1.209 6.409l-0.041-0.119c0.768 2.019 1.839 3.755 3.178 5.248l-0.014-0.015c1.344 1.486 2.973 2.688 4.802 3.524l0.091 0.038c1.795 0.827 3.894 1.31 6.106 1.31 0.067 0 0.133-0 0.2-0.002h-0.010c0.154 0.005 0.336 0.008 0.517 0.008 2.632 0 5.123-0.611 7.336-1.699l-0.098 0.043c2.402-1.293 4.473-2.787 6.325-4.513l-0.018 0.017 7.486 7.416c-1.313 1.385-2.709 2.659-4.192 3.826l-0.083 0.063c-2.968 2.329-6.548 4.022-10.455 4.808l-0.161 0.027c-1.962 0.381-4.219 0.599-6.526 0.599-0.173 0-0.346-0.001-0.519-0.003l0.026 0zM358.92 511.892c-0.099 0.001-0.217 0.002-0.334 0.002-3.959 0-7.734-0.791-11.175-2.222l0.192 0.071c-3.459-1.42-6.421-3.373-8.932-5.789l0.009 0.009c-2.447-2.377-4.421-5.227-5.776-8.404l-0.064-0.168c-1.322-3.068-2.091-6.639-2.091-10.391 0-0.063 0-0.125 0-0.188v0.010-0.14c-0-0.053-0-0.116-0-0.179 0-3.755 0.782-7.326 2.192-10.561l-0.067 0.171c2.835-6.64 8.091-11.789 14.63-14.418l0.179-0.063c3.359-1.36 7.255-2.149 11.334-2.149s7.976 0.789 11.543 2.223l-0.209-0.074c3.463 1.432 6.425 3.405 8.928 5.845l-0.006-0.005c2.449 2.373 4.423 5.219 5.776 8.393l0.063 0.168c1.322 3.068 2.091 6.639 2.091 10.391 0 0.063 0 0.125-0 0.188v-0.010 0.152c0 0.036 0 0.080 0 0.123 0 3.753-0.782 7.324-2.192 10.558l0.066-0.171c-2.835 6.64-8.090 11.789-14.63 14.418l-0.179 0.063c-3.295 1.389-7.125 2.196-11.144 2.196-0.065 0-0.13 0-0.195-0h0.010zM359.072 501.217c0.043 0 0.095 0 0.147 0 2.28 0 4.45-0.473 6.416-1.326l-0.104 0.041c1.978-0.84 3.658-2.026 5.038-3.496l0.007-0.008c1.367-1.472 2.474-3.209 3.231-5.121l0.039-0.111c0.74-1.841 1.168-3.974 1.168-6.208 0-0.051 0-0.103-0-0.154v0.008-0.14c0-0.038 0-0.084 0-0.13 0-2.251-0.429-4.402-1.209-6.375l0.041 0.118c-1.561-3.986-4.571-7.118-8.366-8.801l-0.101-0.040c-1.86-0.834-4.031-1.32-6.315-1.32-0.050 0-0.101 0-0.151 0h0.007c-0.060-0.001-0.13-0.002-0.202-0.002-2.274 0-4.436 0.473-6.396 1.326l0.103-0.040c-1.962 0.851-3.628 2.034-5.003 3.496l-0.007 0.007c-1.367 1.472-2.474 3.209-3.231 5.121l-0.039 0.111c-0.74 1.842-1.168 3.978-1.168 6.214 0 0.049 0 0.098 0 0.147v-0.007 0.152c0 0.034-0 0.074-0 0.113 0 2.257 0.429 4.414 1.209 6.394l-0.041-0.118c0.801 2.040 1.933 3.786 3.346 5.261l-0.005-0.005c1.419 1.476 3.108 2.679 4.99 3.533l0.101 0.041c1.895 0.878 4.113 1.39 6.45 1.39 0.024 0 0.047 0 0.070 0h-0.003zM416.217 511.599c-0.005 0-0.011 0-0.017 0-4.273 0-8.37-0.753-12.166-2.134l0.248 0.079c-4.121-1.467-7.666-3.616-10.678-6.342l0.027 0.024 6.925-8.175c2.168 1.788 4.63 3.348 7.274 4.583l0.212 0.089c2.416 1.092 5.238 1.729 8.209 1.729 0.067 0 0.132-0 0.199-0.001h-0.010c0.175 0.010 0.38 0.017 0.587 0.017 1.866 0 3.617-0.496 5.127-1.363l-0.050 0.026c1.218-0.72 2.022-2.026 2.022-3.521 0-0.035-0-0.070-0.002-0.106v0.005-0.152c0-0.024 0.001-0.053 0.001-0.083 0-0.69-0.156-1.345-0.433-1.93l0.012 0.027c-0.379-0.677-0.923-1.221-1.579-1.589l-0.021-0.010c-0.94-0.572-2.025-1.078-3.166-1.462l-0.115-0.034c-1.386-0.508-3.205-1.050-5.060-1.498l-0.382-0.078c-2.956-0.693-5.402-1.435-7.786-2.31l0.463 0.149c-2.127-0.757-3.971-1.757-5.626-2.994l0.055 0.039c-1.476-1.163-2.661-2.628-3.472-4.306l-0.032-0.073c-0.795-1.776-1.257-3.849-1.257-6.030 0-0.167 0.002-0.334 0.008-0.5l-0 0.024v-0.152c-0.001-0.065-0.002-0.141-0.002-0.217 0-2.267 0.5-4.416 1.395-6.346l-0.039 0.093c0.942-1.961 2.229-3.615 3.798-4.946l0.021-0.017c1.646-1.393 3.591-2.493 5.718-3.189l0.122-0.034c2.205-0.741 4.745-1.168 7.384-1.168 0.048 0 0.097 0 0.146 0h-0.007c0.108-0.002 0.236-0.002 0.365-0.002 3.721 0 7.294 0.634 10.617 1.799l-0.224-0.068c3.451 1.226 6.438 2.896 9.084 4.979l-0.067-0.051-6.085 8.678c-2.017-1.394-4.322-2.663-6.753-3.689l-0.254-0.095c-2.022-0.853-4.372-1.358-6.837-1.378h-0.007c-0.183-0.014-0.396-0.022-0.61-0.022-1.683 0-3.249 0.496-4.561 1.35l0.033-0.019c-1.036 0.722-1.705 1.907-1.705 3.248 0 0.003 0 0.007 0 0.010v-0 0.14c-0.001 0.036-0.002 0.078-0.002 0.12 0 0.76 0.182 1.479 0.505 2.113l-0.012-0.026c0.426 0.722 1.034 1.296 1.762 1.671l0.024 0.012c1.002 0.557 2.164 1.043 3.384 1.395l0.12 0.029q2.254 0.666 5.676 1.565c2.846 0.712 5.247 1.512 7.568 2.467l-0.362-0.132c2.043 0.823 3.807 1.88 5.372 3.17l-0.035-0.028c1.387 1.154 2.497 2.589 3.251 4.224l0.031 0.075c0.704 1.642 1.114 3.551 1.114 5.558 0 0.124-0.002 0.247-0.005 0.37l0-0.018v0.281c0.002 0.087 0.002 0.191 0.002 0.295 0 2.4-0.531 4.676-1.481 6.717l0.041-0.098c-0.964 2.031-2.318 3.733-3.978 5.070l-0.027 0.022c-1.736 1.37-3.781 2.443-6.004 3.098l-0.127 0.032c-2.248 0.676-4.832 1.065-7.507 1.065-0.116 0-0.232-0-0.348-0.002h0.017zM56.725 56.748v71.674h57.472v-20.439h27.201c13.512 0.665 24.117 6.213 29.548 20.439h59.213c-5.022-39.58-31.883-70.541-81.31-71.651z"></path>
</svg>
