<?xml version="1.0" encoding="utf-8"?>
<!-- Generator: Adobe Illustrator 23.0.0, SVG Export Plug-In . SVG Version: 6.00 Build 0)  -->
<svg version="1.1" id="Camada_1" xmlns="http://www.w3.org/2000/svg" xmlns:xlink="http://www.w3.org/1999/xlink" x="0px" y="0px"
	 viewBox="0 0 55.5 56" style="enable-background:new 0 0 55.5 56;" xml:space="preserve">
<g>
	<path d="M54.6,25.9l-8.3-8.3c-1.2-1.2-3.1-1.2-4.2,0c-1.2,1.2-1.2,3.1,0,4.2l3.2,3.2H25c-1.7,0-3,1.3-3,3s1.3,3,3,3h20.3l-3.3,3.3
		c-1.2,1.2-1.2,3.1,0,4.2c0.6,0.6,1.4,0.9,2.1,0.9c0.8,0,1.5-0.3,2.1-0.9l8.3-8.3c0.6-0.6,0.9-1.3,0.9-2.1S55.2,26.5,54.6,25.9z"/>
	<path d="M37,40c-1.7,0-3,1.3-3,3v5.8c0,0.5-0.8,1.2-1.6,1.2h-25C6.7,50,6,49.4,6,48.8V7.2C6,6.6,6.7,6,7.4,6h25
		C33.2,6,34,6.7,34,7.2V14c0,1.7,1.3,3,3,3s3-1.3,3-3V7.2C40,3.3,36.5,0,32.4,0h-25C3.4,0,0,3.3,0,7.2v41.7C0,52.7,3.4,56,7.4,56h25
		c4.1,0,7.6-3.3,7.6-7.2V43C40,41.3,38.7,40,37,40z"/>
</g>
</svg>
