<?xml version="1.0" encoding="utf-8"?>
<!-- Generator: Adobe Illustrator 23.0.0, SVG Export Plug-In . SVG Version: 6.00 Build 0)  -->
<svg version="1.1" xmlns="http://www.w3.org/2000/svg" xmlns:xlink="http://www.w3.org/1999/xlink" x="0px" y="0px"
	 viewBox="0 0 60 50" style="enable-background:new 0 0 60 50;" xml:space="preserve">
<g id="Camada_1">
	<g>
		<path d="M34.2,31c-1.2,1.2-2.7,1.8-4.2,1.8s-3.1-0.6-4.2-1.8L0,5.3v40.5l20.2-20.2l2.8,2.8L2,49.4C2.6,49.8,3.3,50,4,50h52
			c0.7,0,1.4-0.2,2-0.6L36.9,28.3l2.8-2.8L60,45.7V5.3L34.2,31z"/>
		<path d="M1.4,1l27.2,27.2c0.8,0.7,2.1,0.7,2.8,0L58.6,1C57.9,0.4,57,0,56,0H4C3,0,2.1,0.4,1.4,1z"/>
	</g>
</g>
<g id="Layer_2">
</g>
</svg>
