<?xml version="1.0" encoding="utf-8"?>
<!-- Generator: Adobe Illustrator 23.0.0, SVG Export Plug-In . SVG Version: 6.00 Build 0)  -->
<svg version="1.1" id="Camada_1" xmlns="http://www.w3.org/2000/svg" xmlns:xlink="http://www.w3.org/1999/xlink" x="0px" y="0px"
	 viewBox="0 0 864 864" style="enable-background:new 0 0 864 864;" xml:space="preserve">
<path d="M432,0C193.4,0,0,193.4,0,432s193.4,432,432,432s432-193.4,432-432S670.6,0,432,0L432,0z M481.8,646.2v51.7h-83.1v-35.4
	c-44.6,0.5-88.7-10.2-128.1-31.1l23.8-97.4c35.7,20,75.5,31.3,116.3,33.2c41,0,57-14.3,57-36.6c0-22.3-15.6-33.2-66.5-49.8
	c-90.2-30.4-129.6-79.4-128.6-131.3c0-70,43-125.1,126.1-139.2v-44.2h83.1v45c30.1,0.9,59.7,8.2,86.7,21.4l-11,93.7
	c-29.5-15.5-62.2-24-95.5-24.9c-33.2,0-53.5,13.5-53.5,35.7s13.6,31.2,66.5,49.8c83.1,28.6,111,70.6,112,134.9
	C587.7,577.9,531.7,623.2,481.8,646.2z"/>
</svg>
