<?xml version="1.0" encoding="utf-8"?>
<!-- Generator: Adobe Illustrator 23.0.0, SVG Export Plug-In . SVG Version: 6.00 Build 0)  -->
<svg version="1.1" id="Camada_1" xmlns="http://www.w3.org/2000/svg" xmlns:xlink="http://www.w3.org/1999/xlink" x="0px" y="0px"
	 viewBox="0 0 46 36" style="enable-background:new 0 0 46 36;" xml:space="preserve">
<g>
	<path d="M33,0H13C5.8,0,0,5.8,0,13v10c0,7.2,5.8,13,13,13h20c7.2,0,13-5.8,13-13V13C46,5.8,40.2,0,33,0z M13,6h20
		c3.2,0,5.8,2.1,6.7,5H6.3C7.2,8.1,9.8,6,13,6z M33,30H13c-3.9,0-7-3.1-7-7v-6h34v6C40,26.9,36.9,30,33,30z"/>
	<path d="M17,21h-5c-1.7,0-3,1.3-3,3s1.3,3,3,3h5c1.7,0,3-1.3,3-3S18.7,21,17,21z"/>
</g>
</svg>
