<?xml version="1.0" encoding="utf-8"?>
<!-- Generator: Adobe Illustrator 23.0.0, SVG Export Plug-In . SVG Version: 6.00 Build 0)  -->
<svg version="1.1" id="Camada_1" xmlns="http://www.w3.org/2000/svg" xmlns:xlink="http://www.w3.org/1999/xlink" x="0px" y="0px"
	 viewBox="0 0 57.6 46" style="enable-background:new 0 0 57.6 46;" xml:space="preserve">
<g>
	<path d="M56.8,21.1l-5.6-5.6c-1.2-1.2-3.1-1.2-4.2,0l-5.6,5.6c-1.2,1.2-1.2,3.1,0,4.2c1.2,1.2,3.1,1.2,4.2,0l0.4-0.4
		c-1,8.5-8.3,15.1-17,15.1c-1.7,0-3,1.3-3,3s1.3,3,3,3C41,46,51,36.6,51.9,24.7l0.6,0.6c0.6,0.6,1.4,0.9,2.1,0.9s1.5-0.3,2.1-0.9
		C57.9,24.1,57.9,22.2,56.8,21.1z"/>
	<path d="M12.2,20.7l-0.4,0.4c1-8.5,8.3-15.1,17-15.1c1.7,0,3-1.3,3-3s-1.3-3-3-3C16.7,0,6.7,9.4,5.7,21.3l-0.6-0.6
		c-1.2-1.2-3.1-1.2-4.2,0c-1.2,1.2-1.2,3.1,0,4.2l5.6,5.6c0.6,0.6,1.4,0.9,2.1,0.9s1.5-0.3,2.1-0.9l5.6-5.6c1.2-1.2,1.2-3.1,0-4.2
		C15.2,19.5,13.3,19.5,12.2,20.7z"/>
</g>
</svg>
