<?xml version="1.0" encoding="utf-8"?>
<!-- Generator: Adobe Illustrator 23.0.0, SVG Export Plug-In . SVG Version: 6.00 Build 0)  -->
<svg version="1.1" id="Camada_1" xmlns="http://www.w3.org/2000/svg" xmlns:xlink="http://www.w3.org/1999/xlink" x="0px" y="0px"
	 viewBox="0 0 41.3 41.9" style="enable-background:new 0 0 41.3 41.9;" xml:space="preserve">
<path d="M23.3,0c-9.9,0-18,8.1-18,18c0,4,1.4,7.8,3.6,10.8l-8,8c-1.2,1.2-1.2,3.1,0,4.2c0.6,0.6,1.4,0.9,2.1,0.9s1.5-0.3,2.1-0.9
	l8.1-8.1c2.9,1.9,6.3,3.1,10.1,3.1c9.9,0,18-8.1,18-18S33.2,0,23.3,0z M23.3,30c-6.6,0-12-5.4-12-12s5.4-12,12-12s12,5.4,12,12
	S29.9,30,23.3,30z"/>
</svg>
