<?xml version="1.0" encoding="utf-8"?>
<!-- Generator: Adobe Illustrator 23.0.0, SVG Export Plug-In . SVG Version: 6.00 Build 0)  -->
<svg version="1.1" id="Camada_1" xmlns="http://www.w3.org/2000/svg" xmlns:xlink="http://www.w3.org/1999/xlink" x="0px" y="0px"
	 viewBox="0 0 35.8 34.8" style="enable-background:new 0 0 35.8 34.8;" xml:space="preserve">
<path d="M32.8,14.4H10.2l9.2-9.3c1.2-1.2,1.2-3,0-4.2s-3-1.2-4.2,0L0.9,15.3C0.3,15.9,0,16.7,0,17.4s0.3,1.6,0.9,2.1l14.4,14.4
	c0.6,0.6,1.4,0.9,2.1,0.9s1.6-0.3,2.1-0.9c1.2-1.2,1.2-3,0-4.2l-9.3-9.3h22.6c1.7,0,3-1.3,3-3C35.8,15.8,34.5,14.4,32.8,14.4z"/>
</svg>
