<?xml version="1.0" encoding="utf-8"?>
<!-- Generator: Adobe Illustrator 23.0.0, SVG Export Plug-In . SVG Version: 6.00 Build 0)  -->
<svg version="1.1" id="Camada_1" xmlns="http://www.w3.org/2000/svg" xmlns:xlink="http://www.w3.org/1999/xlink" x="0px" y="0px"
	 viewBox="0 0 39.9 40" style="enable-background:new 0 0 39.9 40;" xml:space="preserve">
<g id="MtPuLY.tif_1_">
	<g>
		<g>
			<path d="M38.6,0c1.4,1,1.5,2.3,0.9,3.9c-3.9,11.2-7.7,22.5-11.5,33.8c-0.4,1.1-0.8,2.2-2.2,2.3c-1.3,0.1-1.9-0.8-2.5-1.7
				c-2.4-3.6-4.7-7.2-7.2-10.9c4.5-5.6,9.1-11.2,13.6-16.7c-0.1-0.2-0.3-0.3-0.4-0.5c-5.6,4.5-11.1,9-16.8,13.6
				C8.7,21.1,4.8,18.6,0.9,16c-0.6-0.4-1.1-1.5-0.9-2c0.2-0.7,1-1.6,1.7-1.8c8-2.8,16.1-5.5,24.2-8.2C29.6,2.6,33.3,1.3,37,0
				C37.5,0,38.1,0,38.6,0z"/>
		</g>
	</g>
</g>
</svg>
