<?xml version="1.0" encoding="utf-8"?>
<!-- Generator: Adobe Illustrator 23.0.0, SVG Export Plug-In . SVG Version: 6.00 Build 0)  -->
<svg version="1.1" id="Camada_1" xmlns="http://www.w3.org/2000/svg" xmlns:xlink="http://www.w3.org/1999/xlink" x="0px" y="0px"
	 viewBox="0 0 36 27" style="enable-background:new 0 0 36 27;" xml:space="preserve">
<g>
	<path d="M33,18.5H11.4C10.5,16.4,8.4,15,6,15c-3.3,0-6,2.7-6,6c0,0.1,0,0.2,0,0.3c0,0.1,0,0.1,0,0.2c0,0.4,0.1,0.8,0.2,1.2
		C1,25.2,3.3,27,6,27c2,0,3.8-1,4.9-2.5H33c1.7,0,3-1.3,3-3S34.7,18.5,33,18.5z"/>
	<path d="M36,6c0-3.3-2.7-6-6-6c-2.4,0-4.5,1.4-5.4,3.5H3c-1.7,0-3,1.3-3,3s1.3,3,3,3h22.1C26.2,11,28,12,30,12c2.7,0,5-1.8,5.8-4.3
		C35.9,7.3,36,6.9,36,6.5c0-0.1,0-0.1,0-0.2C36,6.2,36,6.1,36,6z"/>
</g>
</svg>
