<?xml version="1.0" encoding="utf-8"?>
<!-- Generator: Adobe Illustrator 23.0.0, SVG Export Plug-In . SVG Version: 6.00 Build 0)  -->
<svg version="1.1" id="Camada_1" xmlns="http://www.w3.org/2000/svg" xmlns:xlink="http://www.w3.org/1999/xlink" x="0px" y="0px"
	 viewBox="0 0 56 66" style="enable-background:new 0 0 56 66;" xml:space="preserve">
<path d="M43,40c-3.6,0-6.8,1.5-9.2,3.8L25,37.9c0.6-1.5,1-3.1,1-4.9c0-1.8-0.4-3.6-1.1-5.1l8.7-5.9c2.4,2.5,5.7,4,9.4,4
	c7.2,0,13-5.8,13-13S50.2,0,43,0S30,5.8,30,13c0,1.3,0.2,2.6,0.6,3.8l-9.2,6.2C19.1,21.2,16.2,20,13,20C5.8,20,0,25.8,0,33
	s5.8,13,13,13c3.3,0,6.3-1.2,8.6-3.2l9.1,6.2C30.2,50.2,30,51.6,30,53c0,7.2,5.8,13,13,13s13-5.8,13-13S50.2,40,43,40z M43,6
	c3.9,0,7,3.1,7,7s-3.1,7-7,7s-7-3.1-7-7S39.1,6,43,6z M13,40c-3.9,0-7-3.1-7-7s3.1-7,7-7s7,3.1,7,7S16.9,40,13,40z M43,60
	c-3.9,0-7-3.1-7-7s3.1-7,7-7s7,3.1,7,7S46.9,60,43,60z"/>
</svg>
