<?xml version="1.0" encoding="utf-8"?>
<!-- Generator: Adobe Illustrator 23.0.0, SVG Export Plug-In . SVG Version: 6.00 Build 0)  -->
<svg version="1.1" id="Layer_1" xmlns="http://www.w3.org/2000/svg" xmlns:xlink="http://www.w3.org/1999/xlink" x="0px" y="0px"
	 viewBox="0 0 39.5 37.8" style="enable-background:new 0 0 39.5 37.8;" xml:space="preserve">
<g>
	<path d="M29.7,37.8c-0.8,0-1.5-0.2-2.2-0.7c-1.2-0.8-2.4-1.7-3.6-2.6c-0.4-0.3-0.8-0.6-1.2-0.9c-0.5-0.3-0.9-0.7-1.4-1
		c-0.5-0.3-0.9-0.7-1.4-1c-0.1-0.1-0.2-0.1-0.2-0.1s-0.1,0.1-0.2,0.1c-0.5,0.3-0.9,0.7-1.4,1c-0.4,0.3-0.9,0.7-1.3,1
		c-0.4,0.3-0.8,0.6-1.2,0.9c-1.2,0.8-2.4,1.7-3.6,2.6c-1,0.7-2.1,0.9-3.2,0.5c-1.1-0.3-2-1.1-2.4-2.2c-0.4-1.1-0.2-2,0-2.8
		c0.9-2.7,1.8-5.5,2.7-8.2c0.1-0.2,0.1-0.4,0.1-0.5c-0.1-0.1-0.3-0.2-0.4-0.3c-1-0.7-2-1.5-3.1-2.2c-1.4-1-2.7-2-4.1-3
		c-1.3-1-1.9-2.4-1.5-4.1c0.6-1.5,1.7-2.4,3.4-2.7c0.5-0.1,0.9-0.1,1.3-0.1l0,0c1.3,0,2.5,0,3.8,0c1.4,0,2.8,0,4.2,0
		c0.1,0,0.3,0,0.5,0c0.1-0.1,0.1-0.4,0.2-0.5c0.4-1.2,0.8-2.4,1.2-3.5c0.4-1.1,0.7-2.2,1.1-3.4l0-0.1c0.2-0.6,0.4-1.2,0.7-1.9
		c0.6-1.3,1.7-2,3.3-2.1l0,0c1.6,0,2.7,0.7,3.3,2.1c0.3,0.6,0.5,1.3,0.7,1.9v0.1c0.4,1.1,0.7,2.2,1.1,3.4s0.8,2.4,1.2,3.5
		c0,0.1,0.1,0.4,0.2,0.5c0.1,0,0.4,0,0.5,0c1.4,0,2.8,0,4.2,0c1.3,0,2.5,0,3.8,0l0,0c0.4,0,0.9,0,1.3,0.1c1.7,0.3,2.8,1.2,3.2,2.7
		l0,0c0.4,1.7-0.1,3.1-1.5,4.1s-2.7,2-4.1,3c-1,0.7-2,1.5-3.1,2.2c-0.1,0.1-0.3,0.2-0.4,0.3c0,0.1,0.1,0.3,0.1,0.5
		c0.9,2.7,1.8,5.5,2.7,8.2c0.2,0.7,0.5,1.7,0,2.8c-0.4,1.1-1.3,1.9-2.4,2.2C30.4,37.7,30,37.8,29.7,37.8z M19.8,29.5
		c0.5,0,1,0.3,1.4,0.6c0.5,0.3,0.9,0.7,1.4,1c0.4,0.3,0.9,0.7,1.3,1c0.4,0.3,0.8,0.6,1.2,0.9c1.2,0.8,2.4,1.7,3.5,2.5
		c0.5,0.3,1,0.4,1.6,0.3c0.5-0.2,0.9-0.5,1.1-1.1c0.2-0.4,0.1-0.8-0.1-1.4c-0.9-2.7-1.8-5.5-2.7-8.2c-0.5-1.5-0.3-2,1-3
		c1-0.7,2-1.5,3-2.2c1.4-1,2.7-2,4.1-3c0.7-0.5,0.9-1.1,0.7-2.1l0,0c-0.1-0.5-0.4-1.1-1.6-1.2c-0.3,0-0.7,0-1,0l0,0
		c-1.3,0-2.5,0-3.8,0c-1.4,0-2.8,0-4.2,0c-1.6,0-2-0.3-2.5-1.8c-0.4-1.2-0.8-2.4-1.2-3.5c-0.4-1.1-0.7-2.2-1.1-3.3l-0.1-0.2
		c-0.2-0.6-0.4-1.2-0.6-1.7C21.1,2.4,20.8,2,19.8,2l0,0l0,0c-1,0-1.3,0.5-1.5,0.9c-0.2,0.5-0.4,1.1-0.6,1.7l-0.1,0.2
		c-0.4,1.1-0.7,2.2-1.1,3.3c-0.4,1.2-0.8,2.4-1.2,3.5c-0.5,1.5-0.9,1.8-2.5,1.8c-1.4,0-2.8,0-4.2,0c-1.3,0-2.5,0-3.8,0l0,0
		c-0.4,0-0.7,0-1,0c-1.2,0.2-1.5,0.8-1.6,1.2c-0.2,0.9,0,1.5,0.7,2.1c1.4,1,2.7,2,4.1,3c1,0.7,2,1.5,3.1,2.2c1.3,0.9,1.5,1.5,1,3
		c-0.9,2.7-1.8,5.5-2.7,8.2c-0.2,0.6-0.2,1.1-0.1,1.4c0.2,0.5,0.6,0.9,1.1,1.1c0.5,0.2,1.1,0.1,1.6-0.3c1.2-0.8,2.4-1.7,3.5-2.5
		c0.4-0.3,0.8-0.6,1.2-0.9c0.4-0.3,0.9-0.6,1.3-1c0.5-0.3,0.9-0.7,1.4-1C18.9,29.8,19.3,29.5,19.8,29.5z M19.9,31.5L19.9,31.5
		L19.9,31.5z"/>
</g>
</svg>
