<?xml version="1.0" encoding="utf-8"?>
<!-- Generator: Adobe Illustrator 23.0.0, SVG Export Plug-In . SVG Version: 6.00 Build 0)  -->
<svg version="1.1" id="Camada_1" xmlns="http://www.w3.org/2000/svg" xmlns:xlink="http://www.w3.org/1999/xlink" x="0px" y="0px"
	 viewBox="0 0 30.9 39.2" style="enable-background:new 0 0 30.9 39.2;" xml:space="preserve">
<g>
	<path d="M26.4,8.4h-22c-1.2,0-2.2,1-2.2,2.2L4.4,37c0,1.2,1,2.2,2.2,2.2h17.6c1.2,0,2.2-1,2.2-2.2l2.2-26.4
		C28.6,9.4,27.6,8.4,26.4,8.4z"/>
	<path d="M29.9,2.2H19.8V0.9c0-0.5-0.4-0.9-0.9-0.9h-7.1c-0.5,0-0.9,0.4-0.9,0.9v1.3h-10C0.4,2.2,0,2.6,0,3.1v2.6
		c0,0.5,0.4,0.9,0.9,0.9H30c0.5,0,0.9-0.4,0.9-0.9V3.1C30.8,2.6,30.4,2.2,29.9,2.2z"/>
</g>
</svg>
