<?xml version="1.0" encoding="utf-8"?>
<!-- Generator: Adobe Illustrator 23.0.0, SVG Export Plug-In . SVG Version: 6.00 Build 0)  -->
<svg version="1.1" xmlns="http://www.w3.org/2000/svg" xmlns:xlink="http://www.w3.org/1999/xlink" x="0px" y="0px"
	 viewBox="0 0 31.7 36" style="enable-background:new 0 0 31.7 36;" xml:space="preserve">
<g id="Camada_1">
	<path d="M24.2,19.6c2-2.1,3.2-4.9,3.2-8C27.4,5.2,22.2,0,15.9,0C9.5,0,4.3,5.2,4.3,11.6c0,3.1,1.2,5.9,3.2,8C3,22.4,0,27.3,0,33
		c0,1.7,1.3,3,3,3s3-1.3,3-3c0-5.4,4.4-9.9,9.9-9.9c5.4,0,9.9,4.4,9.9,9.9c0,1.7,1.3,3,3,3s3-1.3,3-3C31.7,27.3,28.7,22.4,24.2,19.6
		z M10.3,11.6c0-3.1,2.5-5.6,5.6-5.6s5.6,2.5,5.6,5.6s-2.5,5.6-5.6,5.6S10.3,14.6,10.3,11.6z"/>
</g>
<g id="Layer_2">
</g>
</svg>
