<?xml version="1.0" encoding="utf-8"?>
<!-- Generator: Adobe Illustrator 23.0.0, SVG Export Plug-In . SVG Version: 6.00 Build 0)  -->
<svg version="1.1" id="Camada_1" xmlns="http://www.w3.org/2000/svg" xmlns:xlink="http://www.w3.org/1999/xlink" x="0px" y="0px"
	 viewBox="0 0 77.5 56" style="enable-background:new 0 0 77.5 56;" xml:space="preserve">
<g>
	<path d="M63.6,31c4.1-3.2,6.8-8.1,6.8-13.7C70.4,7.8,62.6,0,53.1,0c-9.5,0-17.3,7.8-17.3,17.3c0,5.6,2.7,10.5,6.8,13.7
		c-8.2,3.9-13.9,12.3-13.9,22c0,1.7,1.3,3,3,3s3-1.3,3-3c0-10.2,8.3-18.4,18.4-18.4c10.2,0,18.4,8.3,18.4,18.4c0,1.7,1.3,3,3,3
		s3-1.3,3-3C77.5,43.3,71.8,34.9,63.6,31z M41.8,17.3C41.8,11.1,46.9,6,53.1,6s11.3,5.1,11.3,11.3s-5.1,11.3-11.3,11.3
		S41.8,23.5,41.8,17.3z"/>
	<path d="M23,27.4h-7v-7c0-1.7-1.3-3-3-3s-3,1.3-3,3v7H3c-1.7,0-3,1.3-3,3s1.3,3,3,3h7v7c0,1.7,1.3,3,3,3s3-1.3,3-3v-7h7
		c1.7,0,3-1.3,3-3S24.7,27.4,23,27.4z"/>
</g>
</svg>
