<?xml version="1.0" encoding="utf-8"?>
<!-- Generator: Adobe Illustrator 23.0.0, SVG Export Plug-In . SVG Version: 6.00 Build 0)  -->
<svg version="1.1" id="Camada_1" xmlns="http://www.w3.org/2000/svg" xmlns:xlink="http://www.w3.org/1999/xlink" x="0px" y="0px"
	 viewBox="0 0 46 46" style="enable-background:new 0 0 46 46;" xml:space="preserve">
<path d="M27.2,23L45.1,5.1c1.2-1.2,1.2-3.1,0-4.2c-1.2-1.2-3.1-1.2-4.2,0L23,18.8L5.1,0.9C4-0.3,2-0.3,0.9,0.9
	c-1.2,1.2-1.2,3.1,0,4.2L18.8,23L0.9,40.9c-1.2,1.2-1.2,3.1,0,4.2C1.5,45.7,2.2,46,3,46s1.5-0.3,2.1-0.9L23,27.2l17.9,17.9
	c0.6,0.6,1.4,0.9,2.1,0.9s1.5-0.3,2.1-0.9c1.2-1.2,1.2-3.1,0-4.2L27.2,23z"/>
</svg>
