<svg xmlns="http://www.w3.org/2000/svg" width="33.008" height="33" viewBox="0 0 33.008 33">
  <path id="Caminho_76" data-name="Caminho 76" d="M17.386,24.039a.5.5,0,1,0-.773-.635ZM5,16.148h.5v-.225l-.168-.149ZM16.7,4a.5.5,0,1,0,.6-.8Zm.693,19.4a.5.5,0,1,0-.773.635Zm11.614-7.257-.332-.374-.168.149v.225ZM16.709,3.2a.5.5,0,1,0,.6.8Zm-.1,20.2a15.826,15.826,0,0,0-1.858,3.525c-.609,1.445-1.172,2.936-1.713,4.165l.915.4c.536-1.218,1.14-2.8,1.72-4.179a15.062,15.062,0,0,1,1.709-3.279Zm-3.571,7.69a2.461,2.461,0,0,1-1.537,1.315,2.514,2.514,0,0,1-2.4-.635,9.3,9.3,0,0,1-2.472-4.7A42.534,42.534,0,0,1,5.5,16.148h-1A43.491,43.491,0,0,0,5.67,27.334a10.246,10.246,0,0,0,2.786,5.2,3.508,3.508,0,0,0,3.328.837A3.46,3.46,0,0,0,13.958,31.5ZM5.332,15.774a13.963,13.963,0,0,1-2.407-2.913A8.421,8.421,0,0,1,1.5,8.574H.5a9.4,9.4,0,0,0,1.575,4.814,14.954,14.954,0,0,0,2.593,3.134ZM1.5,8.574A7.348,7.348,0,0,1,9,1.5V.5A8.347,8.347,0,0,0,.5,8.574ZM9,1.5A14.274,14.274,0,0,1,16.7,4l.6-.8A15.261,15.261,0,0,0,9,.5Zm7.622,22.539a15.062,15.062,0,0,1,1.709,3.279c.58,1.375,1.183,2.961,1.719,4.179l.915-.4c-.541-1.229-1.1-2.72-1.713-4.165A15.822,15.822,0,0,0,17.394,23.4ZM20.05,31.5a3.46,3.46,0,0,0,2.174,1.873,3.508,3.508,0,0,0,3.328-.837,10.246,10.246,0,0,0,2.786-5.2,43.49,43.49,0,0,0,1.17-11.186h-1A42.532,42.532,0,0,1,27.373,27.07a9.3,9.3,0,0,1-2.472,4.7,2.514,2.514,0,0,1-2.4.635,2.461,2.461,0,0,1-1.537-1.315Zm9.29-14.976a14.953,14.953,0,0,0,2.593-3.134,9.4,9.4,0,0,0,1.575-4.814h-1a8.42,8.42,0,0,1-1.425,4.287,13.963,13.963,0,0,1-2.407,2.913Zm4.168-7.948A8.347,8.347,0,0,0,25.008.5v1a7.348,7.348,0,0,1,7.5,7.074ZM25.008.5a15.261,15.261,0,0,0-8.3,2.7l.6.8a14.274,14.274,0,0,1,7.7-2.5Z" transform="translate(-0.5 -0.5)" fill="#fff"/>
</svg>
