<svg width="248" height="80" viewBox="0 0 248 80" fill="none" xmlns="http://www.w3.org/2000/svg">
<path opacity="0.5" d="M39.8397 80H18.7481C13.7758 80 9.00715 78.0168 5.49119 74.4867C1.97524 70.9566 0 66.1688 0 61.1765L0 40H39.8397V80Z" fill="white"/>
<path opacity="0.5" d="M79.6795 40H39.8397V0H60.9314C65.9037 0 70.6723 1.98319 74.1883 5.51328C77.7042 9.04338 79.6795 13.8312 79.6795 18.8235V40Z" fill="white"/>
<path opacity="0.25" d="M0 40V18.8235C0 13.8312 1.97524 9.04338 5.49119 5.51328C9.00715 1.98319 13.7758 0 18.7481 0L39.8397 0V40H0Z" fill="white"/>
<path opacity="0.25" d="M39.8397 80V40H79.6795V61.1765C79.6795 66.1688 77.7042 70.9566 74.1883 74.4867C70.6723 78.0168 65.9037 80 60.9314 80H39.8397Z" fill="white"/>
<path opacity="0.6" d="M55.0726 20H24.6069C22.0183 20 19.9199 22.1069 19.9199 24.7059V55.2941C19.9199 57.8931 22.0183 60 24.6069 60H55.0726C57.6611 60 59.7596 57.8931 59.7596 55.2941V24.7059C59.7596 22.1069 57.6611 20 55.0726 20Z" fill="white"/>
<path d="M112.756 50.5882C110.594 50.5882 108.693 50.1255 107.054 49.2C105.436 48.2954 104.112 46.9428 103.239 45.3035C102.333 43.6314 101.88 41.6941 101.88 39.4917V38.9647C101.88 36.7341 102.333 34.7819 103.239 33.1082C104.104 31.478 105.411 30.127 107.01 29.2117C108.68 28.3176 110.541 27.843 112.434 27.8286C114.327 27.8143 116.195 28.2606 117.879 29.1294C119.424 29.9921 120.688 31.2836 121.521 32.8494C122.397 34.4651 122.835 36.3584 122.835 38.5294V40.1153H105.343C105.432 42.4353 106.178 44.2478 107.581 45.5529C108.984 46.858 110.738 47.5114 112.843 47.5129C114.685 47.5129 116.102 47.087 117.096 46.2353C118.074 45.4069 118.854 44.3689 119.379 43.1976L122.36 44.6517C121.871 45.6359 121.259 46.5532 120.539 47.3812C119.696 48.3435 118.667 49.1226 117.513 49.6706C116.271 50.2823 114.685 50.5882 112.756 50.5882ZM105.388 37.247H119.334C119.217 35.2517 118.537 33.6957 117.295 32.5788C116.053 31.4619 114.467 30.9043 112.536 30.9059C110.576 30.9059 108.969 31.4635 107.713 32.5788C106.456 33.6941 105.682 35.2525 105.388 37.2541V37.247Z" fill="white"/>
<path d="M125.692 49.9788L134.283 39.0588L125.952 28.447H130.117L136.519 36.7694H137.133L143.493 28.447H147.712L139.331 39.0588L147.927 49.9788H143.709L137.131 41.3929H136.517L129.948 49.9788H125.692Z" fill="white"/>
<path d="M159.504 50.5882C158.105 50.6057 156.718 50.3359 155.427 49.7953C154.267 49.3206 153.263 48.5271 152.532 47.5059C151.829 46.5082 151.478 45.2902 151.478 43.8518C151.478 42.3835 151.829 41.1726 152.532 40.2188C153.272 39.2365 154.276 38.4877 155.427 38.0612C156.743 37.5603 158.141 37.3136 159.549 37.3341H166.783V35.7647C166.783 34.2369 166.337 33.0329 165.445 32.153C164.553 31.273 163.227 30.8298 161.468 30.8235C159.75 30.8235 158.404 31.2416 157.433 32.0777C156.438 32.9647 155.748 34.1436 155.459 35.4471L152.216 34.3882C152.558 33.1985 153.124 32.0852 153.882 31.1082C154.695 30.0842 155.739 29.2695 156.929 28.7318C158.202 28.1294 159.73 27.8282 161.513 27.8282C164.259 27.8282 166.393 28.5404 167.915 29.9647C169.437 31.389 170.197 33.3922 170.195 35.9741V45.7059C170.195 46.5859 170.603 47.0259 171.423 47.0259H173.397V49.9765H170.373C169.408 49.9765 168.633 49.7051 168.049 49.1624C167.755 48.8834 167.525 48.5442 167.373 48.1678C167.222 47.7914 167.154 47.3866 167.172 46.9812V46.7624H166.645C166.275 47.3856 165.842 47.9683 165.351 48.5012C164.732 49.1573 163.975 49.6683 163.137 49.9977C162.207 50.3914 160.996 50.5882 159.504 50.5882ZM159.898 47.5929C161.945 47.5929 163.604 46.9843 164.876 45.7671C166.147 44.5498 166.783 42.84 166.783 40.6377V40.1529H159.68C158.305 40.1529 157.172 40.4533 156.28 41.0541C155.387 41.6549 154.942 42.5584 154.944 43.7647C154.921 44.3136 155.036 44.8594 155.277 45.3526C155.518 45.8457 155.878 46.2705 156.324 46.5882C157.246 47.2643 158.437 47.6016 159.898 47.6V47.5929Z" fill="white"/>
<path d="M178.142 49.9788V28.447H181.519V31.1341H182.133C182.627 30.2771 183.318 29.551 184.149 29.0164C185.086 28.3717 186.402 28.0494 188.097 28.0494C189.764 28.0494 191.117 28.4164 192.154 29.1506C193.138 29.8204 193.918 30.7493 194.411 31.8353H195.025C195.537 30.7614 196.315 29.8372 197.284 29.1506C198.292 28.4164 199.703 28.0494 201.516 28.0494C202.829 28.0238 204.128 28.3305 205.292 28.9412C206.368 29.5247 207.258 30.4026 207.858 31.4729C208.511 32.6808 208.834 34.0404 208.795 35.4141V49.9882H205.332V35.7129C205.332 34.2745 204.915 33.1372 204.08 32.3012C203.246 31.4651 202.087 31.0463 200.605 31.0447C199.025 31.0447 197.732 31.5584 196.724 32.5859C195.716 33.6133 195.212 35.0957 195.21 37.0329V49.9741H191.737V35.7129C191.737 34.2745 191.321 33.1372 190.488 32.3012C189.655 31.4651 188.497 31.0463 187.012 31.0447C185.433 31.0447 184.139 31.5584 183.132 32.5859C182.124 33.6133 181.619 35.0957 181.618 37.0329V49.9741L178.142 49.9788Z" fill="white"/>
<path d="M218.048 25.5859C217.113 25.609 216.206 25.2606 215.526 24.6165C215.183 24.2891 214.914 23.892 214.737 23.4517C214.559 23.0114 214.477 22.5381 214.497 22.0635C214.478 21.5886 214.559 21.115 214.737 20.6744C214.914 20.2337 215.183 19.8362 215.526 19.5082C216.224 18.8852 217.125 18.5411 218.059 18.5411C218.993 18.5411 219.895 18.8852 220.593 19.5082C220.93 19.8394 221.193 20.238 221.367 20.6783C221.541 21.1185 221.62 21.5905 221.6 22.0635C221.62 22.5363 221.541 23.0079 221.367 23.4478C221.194 23.8877 220.93 24.2859 220.593 24.6165C220.253 24.9389 219.854 25.1907 219.417 25.3571C218.98 25.5235 218.515 25.6012 218.048 25.5859ZM215.285 49.9788V28.1388H220.811V49.9788H215.285Z" fill="white"/>
<path d="M226.951 49.9788V28.1388H232.387V31.0023H233.18C233.531 30.2376 234.187 29.5129 235.153 28.8212C236.118 28.1294 237.578 27.7882 239.538 27.7882C241.102 27.7564 242.644 28.1639 243.99 28.9647C245.256 29.7382 246.281 30.8514 246.95 32.1788C247.678 33.6637 248.039 35.3029 248.002 36.9576V49.9906H242.476V37.3859C242.476 35.7419 242.075 34.509 241.272 33.687C240.469 32.8651 239.321 32.4541 237.829 32.4541C236.132 32.4541 234.816 33.0196 233.88 34.1506C232.944 35.2816 232.476 36.8588 232.474 38.8823V49.9788H226.951Z" fill="white"/>
</svg>
