<svg width="172" height="56" viewBox="0 0 172 56" fill="none" xmlns="http://www.w3.org/2000/svg">
<path opacity="0.5" d="M27.6308 56H13.0027C9.55418 56 6.24689 54.6118 3.80841 52.1407C1.36993 49.6696 0 46.3181 0 42.8235L0 28H27.6308V56Z" fill="black"/>
<path opacity="0.5" d="M55.2616 28H27.6308V0H42.2589C45.7074 0 49.0147 1.38823 51.4532 3.8593C53.8917 6.33037 55.2616 9.68185 55.2616 13.1765V28Z" fill="black"/>
<path opacity="0.25" d="M0 28V13.1765C0 9.68185 1.36993 6.33037 3.80841 3.8593C6.24689 1.38823 9.55418 0 13.0027 0L27.6308 0V28H0Z" fill="black"/>
<path opacity="0.25" d="M27.6308 56V28H55.2616V42.8235C55.2616 46.3181 53.8917 49.6696 51.4532 52.1407C49.0147 54.6118 45.7074 56 42.2589 56H27.6308Z" fill="black"/>
<path opacity="0.6" d="M38.1955 14H17.0661C15.2708 14 13.8154 15.4748 13.8154 17.2941V38.7059C13.8154 40.5252 15.2708 42 17.0661 42H38.1955C39.9908 42 41.4462 40.5252 41.4462 38.7059V17.2941C41.4462 15.4748 39.9908 14 38.1955 14Z" fill="black"/>
<path d="M78.2016 35.4118C76.7019 35.4118 75.3838 35.0878 74.2471 34.44C73.1252 33.8068 72.2067 32.86 71.6011 31.7125C70.9726 30.542 70.6584 29.1859 70.6584 27.6442V27.2753C70.6584 25.7139 70.9726 24.3474 71.6011 23.1758C72.2013 22.0341 73.1087 21.0884 74.2179 20.4482C75.3764 19.821 76.6676 19.4876 77.9811 19.4767C79.2945 19.4658 80.591 19.7777 81.7595 20.3856C82.8313 20.9897 83.7083 21.8945 84.2852 22.9913C84.8931 24.1212 85.197 25.446 85.197 26.9656V28.0758H73.0606C73.1224 29.6998 73.6398 30.9685 74.6128 31.8821C75.5859 32.7957 76.8022 33.253 78.2617 33.2541C79.5392 33.2541 80.5231 32.956 81.2133 32.3598C81.8901 31.7791 82.4303 31.0526 82.7948 30.2334L84.8622 31.2513C84.5235 31.9402 84.0991 32.5823 83.5993 33.1619C83.0151 33.8355 82.301 34.3809 81.501 34.7645C80.6396 35.196 79.5398 35.4118 78.2016 35.4118ZM73.0915 26.0729H82.7639C82.6826 24.6762 82.2113 23.587 81.3499 22.8052C80.4884 22.0234 79.3881 21.633 78.0488 21.6341C76.69 21.6341 75.575 22.0245 74.7039 22.8052C73.8327 23.5859 73.2952 24.6768 73.0915 26.0779V26.0729Z" fill="black"/>
<path d="M87.1735 34.9852L93.132 27.3412L87.3539 19.913H90.2422L94.6826 25.7386H95.1084L99.5196 19.913H102.445L96.633 27.3412L102.595 34.9852H99.6691L95.1068 28.9751H94.681L90.1251 34.9852H87.1735Z" fill="black"/>
<path d="M110.624 35.4118C109.654 35.4247 108.691 35.2358 107.796 34.8567C106.991 34.5245 106.296 33.969 105.789 33.2541C105.301 32.5558 105.057 31.7032 105.057 30.6963C105.057 29.6685 105.301 28.8208 105.789 28.1532C106.301 27.4656 106.998 26.9414 107.796 26.6429C108.709 26.2924 109.679 26.1197 110.655 26.1339H115.672V25.0353C115.672 23.968 115.363 23.1258 114.744 22.5087C114.125 21.8916 113.206 21.5809 111.986 21.5765C110.794 21.5765 109.861 21.8691 109.187 22.4544C108.498 23.0753 108.019 23.9006 107.819 24.813L105.569 24.0718C105.807 23.2389 106.199 22.4597 106.725 21.7758C107.289 21.0589 108.013 20.4887 108.838 20.1123C109.721 19.6906 110.781 19.4798 112.017 19.4798C113.922 19.4798 115.402 19.9783 116.457 20.9753C117.513 21.9723 118.04 23.3745 118.039 25.1819V31.9941C118.039 32.6101 118.322 32.9181 118.89 32.9181H120.259V34.9836H118.162C117.493 34.9836 116.955 34.7936 116.55 34.4137C116.346 34.2184 116.187 33.9809 116.082 33.7175C115.977 33.454 115.929 33.1707 115.942 32.8869V32.7337H115.576C115.32 33.1699 115.019 33.5778 114.679 33.9509C114.249 34.4102 113.725 34.7678 113.143 34.9984C112.498 35.274 111.659 35.4118 110.624 35.4118ZM110.897 33.3151C112.316 33.3151 113.467 32.889 114.349 32.037C115.231 31.1849 115.672 29.988 115.672 28.4464V28.1071H110.746C109.792 28.1071 109.006 28.3174 108.387 28.7379C107.769 29.1585 107.46 29.7909 107.461 30.6353C107.445 31.0195 107.525 31.4016 107.692 31.7468C107.859 32.092 108.109 32.3894 108.418 32.6118C109.058 33.085 109.884 33.3211 110.897 33.32V33.3151Z" fill="black"/>
<path d="M123.55 34.9852V19.9129H125.892V21.7939H126.318C126.661 21.1939 127.14 20.6857 127.716 20.3115C128.366 19.8602 129.279 19.6346 130.455 19.6346C131.611 19.6346 132.549 19.8915 133.268 20.4054C133.95 20.8743 134.492 21.5245 134.833 22.2847H135.259C135.615 21.533 136.154 20.886 136.826 20.4054C137.525 19.8915 138.503 19.6346 139.761 19.6346C140.672 19.6167 141.572 19.8314 142.38 20.2588C143.126 20.6673 143.743 21.2818 144.16 22.031C144.612 22.8766 144.837 23.8283 144.81 24.7899V34.9918H142.407V24.999C142.407 23.9921 142.119 23.1961 141.541 22.6108C140.964 22.0256 140.16 21.7324 139.129 21.7313C138.034 21.7313 137.136 22.0909 136.438 22.8101C135.739 23.5293 135.389 24.567 135.388 25.923V34.9819H132.979V24.999C132.979 23.9921 132.69 23.1961 132.113 22.6108C131.535 22.0256 130.732 21.7324 129.702 21.7313C128.607 21.7313 127.709 22.0909 127.011 22.8101C126.312 23.5293 125.962 24.567 125.961 25.923V34.9819L123.55 34.9852Z" fill="black"/>
<path d="M151.227 17.9101C150.578 17.9263 149.95 17.6825 149.478 17.2315C149.24 17.0024 149.053 16.7244 148.93 16.4162C148.807 16.108 148.75 15.7767 148.764 15.4445C148.751 15.112 148.807 14.7805 148.93 14.4721C149.053 14.1636 149.24 13.8853 149.478 13.6558C149.962 13.2197 150.587 12.9788 151.235 12.9788C151.882 12.9788 152.508 13.2197 152.992 13.6558C153.225 13.8876 153.408 14.1666 153.529 14.4748C153.649 14.783 153.704 15.1133 153.691 15.4445C153.704 15.7754 153.649 16.1056 153.529 16.4135C153.409 16.7214 153.225 17.0001 152.992 17.2315C152.756 17.4574 152.479 17.6337 152.176 17.7502C151.873 17.8667 151.55 17.921 151.227 17.9101ZM149.31 34.9852V19.6972H153.143V34.9852H149.31Z" fill="black"/>
<path d="M157.401 34.9852V19.6972H161.172V21.7017H161.721C161.965 21.1664 162.422 20.6591 163.09 20.1748C163.758 19.6906 164.772 19.4518 166.131 19.4518C167.216 19.4295 168.285 19.7147 169.219 20.2753C170.098 20.8158 170.809 21.5953 171.272 22.5252C171.777 23.5646 172.027 24.7121 172.002 25.8704V34.9934H168.169V26.1701C168.169 25.0194 167.891 24.1563 167.334 23.5809C166.777 23.0056 165.981 22.7179 164.946 22.7179C163.769 22.7179 162.856 23.1132 162.207 23.9038C161.558 24.6944 161.233 25.799 161.232 27.2177V34.9852H157.401Z" fill="black"/>
</svg>
