<svg width="14" height="16" viewBox="0 0 14 16" fill="none" xmlns="http://www.w3.org/2000/svg">
<path d="M1.37485 6.125C1.37485 4.63316 1.96749 3.20242 3.02238 2.14752C4.07727 1.09263 5.50801 0.5 6.99985 0.5C8.4917 0.5 9.92244 1.09263 10.9773 2.14752C12.0322 3.20242 12.6249 4.63316 12.6249 6.125V8.505L13.8299 11.5175C13.8679 11.6123 13.882 11.715 13.8711 11.8166C13.8603 11.9182 13.8246 12.0155 13.7674 12.1002C13.7102 12.1848 13.6331 12.2541 13.5428 12.302C13.4526 12.3499 13.352 12.375 13.2499 12.375H0.749855C0.647695 12.375 0.547099 12.3499 0.456872 12.302C0.366645 12.2541 0.289539 12.1848 0.232303 12.1002C0.175066 12.0155 0.139446 11.9182 0.128559 11.8166C0.117672 11.715 0.131851 11.6123 0.169855 11.5175L1.37485 8.505V6.125Z" fill="#925529"/>
<path d="M4.57715 13.625C4.8534 14.7062 5.82965 15.5 6.99965 15.5C8.16965 15.5 9.1459 14.7062 9.42215 13.625H4.57715Z" fill="#925529"/>
</svg>
