<svg width="21" height="22" viewBox="0 0 21 22" fill="none" xmlns="http://www.w3.org/2000/svg">
<path fill-rule="evenodd" clip-rule="evenodd" d="M7.94011 2.29289C8.12765 2.10536 8.382 2 8.64722 2H12.6472C12.9124 2 13.1668 2.10536 13.3543 2.29289C13.5419 2.48043 13.6472 2.73478 13.6472 3V4H7.64722V3C7.64722 2.73478 7.75257 2.48043 7.94011 2.29289ZM5.64722 4V3C5.64722 2.20435 5.96329 1.44129 6.5259 0.87868C7.08851 0.31607 7.85157 0 8.64722 0H12.6472C13.4429 0 14.2059 0.31607 14.7685 0.87868C15.3311 1.44129 15.6472 2.20435 15.6472 3V4H17.6472H19.6472C20.1995 4 20.6472 4.44772 20.6472 5C20.6472 5.55228 20.1995 6 19.6472 6H18.6472V19C18.6472 19.7957 18.3311 20.5587 17.7685 21.1213C17.2059 21.6839 16.4429 22 15.6472 22H5.64722C4.85157 22 4.08851 21.6839 3.5259 21.1213C2.96329 20.5587 2.64722 19.7957 2.64722 19V6H1.64722C1.09493 6 0.647217 5.55228 0.647217 5C0.647217 4.44772 1.09493 4 1.64722 4H3.64722H5.64722ZM4.64722 6V19C4.64722 19.2652 4.75257 19.5196 4.94011 19.7071C5.12765 19.8946 5.382 20 5.64722 20H15.6472C15.9124 20 16.1668 19.8946 16.3543 19.7071C16.5419 19.5196 16.6472 19.2652 16.6472 19V6H14.6472H6.64722H4.64722ZM8.64722 9C9.1995 9 9.64722 9.44771 9.64722 10V16C9.64722 16.5523 9.1995 17 8.64722 17C8.09493 17 7.64722 16.5523 7.64722 16V10C7.64722 9.44771 8.09493 9 8.64722 9ZM13.6472 16V10C13.6472 9.44771 13.1995 9 12.6472 9C12.0949 9 11.6472 9.44771 11.6472 10V16C11.6472 16.5523 12.0949 17 12.6472 17C13.1995 17 13.6472 16.5523 13.6472 16Z" fill="black"/>
</svg>
